<svg id="Layer_1" height="512" viewBox="0 0 128 128" width="512" xmlns="http://www.w3.org/2000/svg" data-name="Layer 1"><rect fill="#0087ff" height="31.67" rx="6.436" width="80.5" x="18.671" y="42.101"/><path d="m23.995 28.338h20.423v13.763h-20.423z" fill="#5a422c"/><path d="m21.849 22.419h24.714v5.92h-24.714z" fill="#60dc4e"/><circle cx="79.496" cy="38.992" fill="#fb0025" r="10.654"/><path d="m35.237 80.431h-11.744l2-6.66h11.744z" fill="#84c8ff"/><path d="m94.348 80.431h-11.744l-2-6.66h11.744z" fill="#84c8ff"/><rect fill="#ffda2d" height="5.698" rx="2.849" width="31.551" x="28.146" y="49.39"/><rect fill="#ffda2d" height="5.698" rx="2.849" width="31.551" x="28.146" y="61.581"/><path d="m76.9 43.259a1.75 1.75 0 0 1 -1.218-3.006l2.063-2v-4.953a1.75 1.75 0 0 1 3.5 0v5.7a1.754 1.754 0 0 1 -.531 1.256l-2.594 2.509a1.745 1.745 0 0 1 -1.22.494z" fill="#fff4ca"/><g fill="#002390"><path d="m21.849 30.088h.4v6.162a1.75 1.75 0 0 0 3.5 0v-6.162h20.814a1.749 1.749 0 0 0 1.75-1.75v-5.92a1.75 1.75 0 0 0 -1.75-1.75h-24.714a1.751 1.751 0 0 0 -1.75 1.75v5.92a1.75 1.75 0 0 0 1.75 1.75zm1.75-5.92h21.214v2.42h-21.213z"/><path d="m56.849 47.64h-10.766a1.75 1.75 0 0 0 0 3.5h10.766a1.1 1.1 0 0 1 0 2.2h-25.849a1.1 1.1 0 1 1 0-2.2h3.211a1.75 1.75 0 0 0 0-3.5h-3.211a4.6 4.6 0 1 0 0 9.2h25.849a4.6 4.6 0 0 0 0-9.2z"/><path d="m40.333 51.14a1.75 1.75 0 0 0 0-3.5h-.833a1.75 1.75 0 0 0 0 3.5z"/><path d="m56.849 59.831h-25.849a4.6 4.6 0 1 0 0 9.2h25.849a4.6 4.6 0 0 0 0-9.2zm0 5.7h-25.849a1.1 1.1 0 1 1 0-2.2h25.849a1.1 1.1 0 0 1 0 2.2z"/><path d="m76.9 43.259a1.745 1.745 0 0 0 1.219-.494l2.595-2.517a1.754 1.754 0 0 0 .531-1.256v-5.692a1.75 1.75 0 0 0 -3.5 0v4.955l-2.063 2a1.75 1.75 0 0 0 1.218 3.004z"/><path d="m73 87h-19.5a6.5 6.5 0 0 0 0 13h11.678a1.915 1.915 0 0 1 0 3.83h-8.928a1.75 1.75 0 0 0 0 3.5h8.928a5.415 5.415 0 0 0 0-10.83h-11.678a3 3 0 0 1 0-6h19.5a1.75 1.75 0 0 0 0-3.5z"/><path d="m79.833 87h-.793a1.75 1.75 0 0 0 0 3.5h.793a1.75 1.75 0 0 0 0-3.5z"/><path d="m102.952 56.187h-2.032v-7.649a8.2 8.2 0 0 0 -4.174-7.138 1.75 1.75 0 1 0 -1.717 3.05 4.7 4.7 0 0 1 2.391 4.088v18.8a4.691 4.691 0 0 1 -4.686 4.686h-67.627a4.691 4.691 0 0 1 -4.686-4.686v-18.8a4.691 4.691 0 0 1 4.686-4.686h42.979a12.629 12.629 0 1 0 -.915-3.5h-21v-6.1a1.75 1.75 0 0 0 -3.5 0v6.1h-17.564a8.2 8.2 0 0 0 -8.186 8.186v18.8a8.193 8.193 0 0 0 6.288 7.955l-1.392 4.637a1.751 1.751 0 0 0 1.676 2.254h11.744a1.75 1.75 0 1 0 0-3.5h-9.391l.949-3.16h52.505l1.625 5.413a1.752 1.752 0 0 0 1.675 1.244h11.748a1.751 1.751 0 0 0 1.676-2.254l-1.393-4.636a8.2 8.2 0 0 0 6.289-7.956v-7.648h2.032a4.632 4.632 0 0 1 4.627 4.627v18.061a4.633 4.633 0 0 1 -4.627 4.625h-16.476a1.75 1.75 0 0 0 0 3.5h16.476a8.137 8.137 0 0 0 8.127-8.127v-18.059a8.137 8.137 0 0 0 -8.127-8.127zm-23.452-26.099a8.9 8.9 0 1 1 -8.9 8.9 8.914 8.914 0 0 1 8.9-8.9zm4.409 48.593-.948-3.16h8.089l.95 3.16z"/></g></svg>