<svg id="Layer_1" height="512" viewBox="0 0 128 128" width="512" xmlns="http://www.w3.org/2000/svg" data-name="Layer 1"><path d="m21.163 18.1h.974a12.75 12.75 0 0 1 12.75 12.75v13.168a0 0 0 0 1 0 0h-13.724a0 0 0 0 1 0 0v-25.918a0 0 0 0 1 0 0z" fill="#0087ff" transform="matrix(.979 -.203 .203 .979 -5.73 6.348)"/><path d="m28.356 43.687h5.786v5.786h-5.786z" fill="#5a422c" transform="matrix(.979 -.203 .203 .979 -8.819 7.328)"/><path d="m47.523 63.179-1.648-7.932a8.567 8.567 0 0 0 -10.13-6.647l-7.914 1.643a6.854 6.854 0 0 0 -5.316 8.1l8.941 43.045 10.715-2.225 12.3-2.554 5.621-1.168-4.092-19.702a10 10 0 0 0 -4.236-6.28 9.99 9.99 0 0 1 -4.241-6.28z" fill="#fb0025"/><path d="m29.706 93.3h50.521a14.147 14.147 0 0 1 14.147 14.147v1.081a0 0 0 0 1 0 0h-64.668a0 0 0 0 1 0 0v-15.228a0 0 0 0 1 0 0z" fill="#0087ff"/><circle cx="73.154" cy="53.038" fill="#84c8ff" r="18.703"/><path d="m107.636 68.719-10.158-5.352a1.75 1.75 0 1 0 -1.631 3.1l10.158 5.351a1.73 1.73 0 0 0 .813.2 1.75 1.75 0 0 0 .818-3.3z" fill="#fff4ca"/><path d="m109.329 58.357-10.148.027a1.75 1.75 0 0 0 0 3.5h.005l10.148-.027a1.75 1.75 0 0 0 -.005-3.5z" fill="#fff4ca"/><path d="m95.59 68.71a1.75 1.75 0 1 0 -2.89 1.971l5.716 8.385a1.75 1.75 0 0 0 2.893-1.97z" fill="#fff4ca"/><circle cx="29.954" cy="94.917" fill="#ffda2d" r="7.583"/><g fill="#002390"><path d="m80.228 91.546h-36.478a1.75 1.75 0 1 0 0 3.5h36.478a12.412 12.412 0 0 1 12.379 11.728h-38.156a1.75 1.75 0 1 0 0 3.5h39.924a1.749 1.749 0 0 0 1.75-1.75v-1.081a15.916 15.916 0 0 0 -15.897-15.897z"/><path d="m47.375 106.774h-1.125a1.75 1.75 0 0 0 0 3.5h1.125a1.75 1.75 0 0 0 0-3.5z"/><path d="m40.387 106.774h-8.931v-2.656a9.328 9.328 0 0 0 -1.5-18.535l-5.727-27.592a5.108 5.108 0 0 1 3.958-6.033l1.168-.243h.006l5.657-1.175 1.075-.224a6.816 6.816 0 0 1 8.06 5.288l1.648 7.932a11.676 11.676 0 0 0 4.977 7.38 8.2 8.2 0 0 1 3.503 5.184l2.408 11.6a1.75 1.75 0 1 0 3.428-.711l-2.409-11.6a11.686 11.686 0 0 0 -4.978-7.389 8.2 8.2 0 0 1 -3.494-5.18l-1.647-7.932a10.3 10.3 0 0 0 -11.556-8.106l-.47-2.268 2.171-.451a1.75 1.75 0 1 0 -.711-3.427l-3.883.806-7.84 1.631-4.555-21.924a11 11 0 0 1 12.242 8.664l1.306 6.287a1.75 1.75 0 0 0 3.428-.711l-1.306-6.289a14.5 14.5 0 0 0 -17.146-11.246l-.955.2a1.751 1.751 0 0 0 -1.357 2.069l5.271 25.377a1.747 1.747 0 0 0 2.072 1.356l2.173-.451.471 2.265a8.607 8.607 0 0 0 -6.144 10.03l5.72 27.543a9.325 9.325 0 0 0 1.434 17.784v4.5a1.749 1.749 0 0 0 1.75 1.75h10.683a1.75 1.75 0 0 0 0-3.5zm-8.252-61.545.464 2.237-2.236.465-.463-2.237zm-8.014 49.688a5.833 5.833 0 1 1 5.833 5.833 5.84 5.84 0 0 1 -5.833-5.833z"/><path d="m73.153 73.49a20.455 20.455 0 0 0 4.12-40.49 1.75 1.75 0 0 0 -.7 3.43 16.951 16.951 0 1 1 -11.86 1.9 1.749 1.749 0 0 0 -1.745-3.03 20.454 20.454 0 0 0 10.185 38.19z"/><path d="m69.743 36.4a1.648 1.648 0 0 0 .319-.03c.332-.06.667-.112 1.006-.153a1.751 1.751 0 1 0 -.427-3.475q-.612.076-1.212.187a1.75 1.75 0 0 0 .314 3.471z"/><path d="m107.636 68.719-10.158-5.352a1.75 1.75 0 1 0 -1.631 3.1l10.158 5.351a1.73 1.73 0 0 0 .813.2 1.75 1.75 0 0 0 .818-3.3z"/><path d="m109.329 58.357-10.148.027a1.75 1.75 0 0 0 0 3.5h.005l10.148-.027a1.75 1.75 0 0 0 -.005-3.5z"/><path d="m95.59 68.71a1.75 1.75 0 1 0 -2.89 1.971l5.716 8.385a1.75 1.75 0 0 0 2.893-1.97z"/></g></svg>