<svg id="Layer_1" height="512" viewBox="0 0 128 128" width="512" xmlns="http://www.w3.org/2000/svg" data-name="Layer 1"><path d="m96.93 109.33h-65.86a5.163 5.163 0 0 1 -5.11-5.89l1.2-8.47.5-3.48.36-2.58v-.01l.5-3.47.36-2.58.5-3.47.37-2.59.49-3.47 1.26-8.88a5.149 5.149 0 0 1 5.1-4.44h54.8a5.149 5.149 0 0 1 5.1 4.44l5.54 39a5.163 5.163 0 0 1 -5.11 5.89z" fill="#a07855"/><rect fill="#fff4cd" height="34.25" rx="9.156" width="34.25" x="46.875" y="64"/><path d="m79.531 34.2a15.531 15.531 0 1 0 -29.845 6.015 34.093 34.093 0 0 1 2.9 13.275v1.679h22.831v-1.68a30.062 30.062 0 0 1 2.667-12.754 15.394 15.394 0 0 0 1.447-6.535z" fill="#feda43"/><path d="m68.5 81.125h-9l-1-25.954h11z" fill="#178bfb"/><g fill="#59422e"><path d="m39.25 75.07a1.746 1.746 0 0 1 -1.75 1.75h-7.51a.986.986 0 0 1 -.24-.03l.49-3.47h7.26a1.746 1.746 0 0 1 1.75 1.75z"/><path d="m38.38 81.12a1.763 1.763 0 0 1 -1.76 1.76h-7.51a.852.852 0 0 1 -.23-.03l.5-3.47h7.24a1.752 1.752 0 0 1 1.76 1.74z"/><path d="m37.5 87.18a1.746 1.746 0 0 1 -1.75 1.75h-7.51a.784.784 0 0 1 -.22-.02v-.01l.5-3.47h7.23a1.746 1.746 0 0 1 1.75 1.75z"/><path d="m36.62 93.24a1.75 1.75 0 0 1 -1.74 1.75h-7.52a.648.648 0 0 1 -.2-.02l.5-3.48h7.22a1.743 1.743 0 0 1 1.74 1.75z"/></g><path d="m54.834 33.659a1.909 1.909 0 0 1 -.237-.015 1.744 1.744 0 0 1 -1.5-1.95c.036-.286.99-7.022 8.865-9.134a1.75 1.75 0 1 1 .907 3.38c-5.553 1.49-6.275 6.022-6.3 6.214a1.758 1.758 0 0 1 -1.735 1.505z" fill="#fff4cd"/></svg>