<svg id="Layer_1" height="512" viewBox="0 0 128 128" width="512" xmlns="http://www.w3.org/2000/svg" data-name="Layer 1"><path d="m96.93 109.33h-65.86a5.163 5.163 0 0 1 -5.11-5.89l1.2-8.47.5-3.48.36-2.58v-.01l.5-3.47.36-2.58.5-3.47.37-2.59.49-3.47 1.26-8.88a5.149 5.149 0 0 1 5.1-4.44h54.8a5.149 5.149 0 0 1 5.1 4.44l5.54 39a5.163 5.163 0 0 1 -5.11 5.89z" fill="#a07852"/><rect fill="#fff4ca" height="34.25" rx="9.156" width="34.25" x="46.875" y="64"/><path d="m79.531 34.2a15.531 15.531 0 1 0 -29.845 6.015 34.093 34.093 0 0 1 2.9 13.275v1.679h22.831v-1.68a30.062 30.062 0 0 1 2.667-12.754 15.394 15.394 0 0 0 1.447-6.535z" fill="#ffda2d"/><path d="m68.5 81.125h-9l-1-25.954h11z" fill="#0087ff"/><path d="m39.25 75.07a1.746 1.746 0 0 1 -1.75 1.75h-7.51a.986.986 0 0 1 -.24-.03l.49-3.47h7.26a1.746 1.746 0 0 1 1.75 1.75z" fill="#5a422c"/><path d="m38.38 81.12a1.763 1.763 0 0 1 -1.76 1.76h-7.51a.852.852 0 0 1 -.23-.03l.5-3.47h7.24a1.752 1.752 0 0 1 1.76 1.74z" fill="#5a422c"/><path d="m37.5 87.18a1.746 1.746 0 0 1 -1.75 1.75h-7.51a.784.784 0 0 1 -.22-.02v-.01l.5-3.47h7.23a1.746 1.746 0 0 1 1.75 1.75z" fill="#5a422c"/><path d="m36.62 93.24a1.75 1.75 0 0 1 -1.74 1.75h-7.52a.648.648 0 0 1 -.2-.02l.5-3.48h7.22a1.743 1.743 0 0 1 1.74 1.75z" fill="#5a422c"/><g fill="#002390"><path d="m45.625 107.579h-1.25a1.75 1.75 0 0 0 0 3.5h1.25a1.75 1.75 0 1 0 0-3.5z"/><path d="m103.772 103.2-5.535-39.011a6.942 6.942 0 0 0 -6.837-5.939h-11.869a1.75 1.75 0 0 0 0 3.5h11.869a3.426 3.426 0 0 1 3.376 2.932l5.536 39.008a3.412 3.412 0 0 1 -3.377 3.889h-43.435a1.75 1.75 0 0 0 0 3.5h43.431a6.909 6.909 0 0 0 6.841-7.881z"/><path d="m71.969 100a10.919 10.919 0 0 0 10.906-10.906v-15.938a10.919 10.919 0 0 0 -10.906-10.906h-.991l.206-5.329h4.233a1.75 1.75 0 0 0 1.75-1.75v-1.682a28.151 28.151 0 0 1 2.5-12.013 17.278 17.278 0 0 0 -16.467-24.538 17.312 17.312 0 0 0 -16.478 16.909 17.075 17.075 0 0 0 1.353 7.053 35.492 35.492 0 0 1 2.368 7.963 1.75 1.75 0 1 0 3.452-.574 38.949 38.949 0 0 0 -2.6-8.754 13.612 13.612 0 0 1 -1.076-5.617 13.975 13.975 0 0 1 13.14-13.483 13.769 13.769 0 0 1 13.141 19.558 31.6 31.6 0 0 0 -2.831 13.428h-21.086a1.75 1.75 0 0 0 0 3.5h4.233l.051 1.329h-20.267a6.942 6.942 0 0 0 -6.841 5.939l-2.338 16.506a1.767 1.767 0 0 0 -.056.4l-.79 5.566a1.745 1.745 0 0 0 -.089.524c0 .02.006.039.006.059l-.763 5.379a1.736 1.736 0 0 0 -.118.617c0 .043.01.082.013.124l-1.4 9.839a6.909 6.909 0 0 0 6.841 7.881h6.435a1.75 1.75 0 1 0 0-3.5h-6.431a3.412 3.412 0 0 1 -3.377-3.889l1.236-8.7h5.947a1.75 1.75 0 1 0 0-3.5h-5.451l.363-2.555h5.963a1.75 1.75 0 0 0 0-3.5h-5.466l.362-2.555h5.979a1.75 1.75 0 0 0 0-3.5h-5.482l.363-2.555h5.994a1.75 1.75 0 0 0 0-3.5h-5.5l1.226-8.638a3.425 3.425 0 0 1 3.374-2.942h20.4l.749 19.442a1.751 1.751 0 0 0 1.751 1.683h9a1.751 1.751 0 0 0 1.749-1.683l.595-15.442h1.125a7.414 7.414 0 0 1 7.406 7.406v15.938a7.414 7.414 0 0 1 -7.406 7.406h-15.938a7.414 7.414 0 0 1 -7.406-7.406v-15.938a7.4 7.4 0 0 1 3.267-6.142 1.75 1.75 0 0 0 -1.959-2.9 10.9 10.9 0 0 0 -4.808 9.043v15.937a10.919 10.919 0 0 0 10.906 10.906zm-10.785-20.625-.865-22.454h7.362l-.865 22.454z"/><path d="m61.986 26.123a1.746 1.746 0 0 0 .512-.076c.122-.037.245-.072.371-.107a1.75 1.75 0 1 0 -.905-3.38q-.249.066-.488.139a1.75 1.75 0 0 0 .51 3.424z"/><path d="m56.569 32.141a7.706 7.706 0 0 1 2.514-4.257 1.75 1.75 0 0 0 -2.3-2.637 11.193 11.193 0 0 0 -3.683 6.446 1.75 1.75 0 0 0 1.512 1.959 1.727 1.727 0 0 0 .226.015 1.749 1.749 0 0 0 1.731-1.526z"/></g></svg>