<svg id="Layer_1" height="512" viewBox="0 0 128 128" width="512" xmlns="http://www.w3.org/2000/svg" data-name="Layer 1"><path d="m18.671 45.569h90.659v13h-90.659z" fill="#178bfb"/><path d="m25 58.569h78v43.117h-78z" fill="#feda43"/><path d="m25 40.153h13.375v5.417h-13.375z" fill="#65db57"/><path d="m89.625 40.153h13.375v5.417h-13.375z" fill="#65db57"/><path d="m59.271 66.15h11.25l-5.625 10.375h7.875l-14.625 16.125 3.625-12.25-6.542-.042z" fill="#f90d2f"/><g fill="#59422e"><path d="m35.625 28.5h-2.188v-2.186a1.75 1.75 0 1 0 -3.5 0v2.186h-2.187a1.75 1.75 0 1 0 0 3.5h2.187v2.187a1.75 1.75 0 1 0 3.5 0v-2.187h2.188a1.75 1.75 0 0 0 0-3.5z"/><path d="m100.25 28.5h-7.875a1.75 1.75 0 1 0 0 3.5h7.875a1.75 1.75 0 0 0 0-3.5z"/></g></svg>