<svg id="Layer_1" height="512" viewBox="0 0 128 128" width="512" xmlns="http://www.w3.org/2000/svg" data-name="Layer 1"><path d="m18.671 45.569h90.659v13h-90.659z" fill="#0087ff"/><path d="m25 58.569h78v43.117h-78z" fill="#ffda2d"/><path d="m25 40.153h13.375v5.417h-13.375z" fill="#60dc4e"/><path d="m89.625 40.153h13.375v5.417h-13.375z" fill="#60dc4e"/><path d="m59.271 66.15h11.25l-5.625 10.375h7.875l-14.625 16.125 3.625-12.25-6.542-.042z" fill="#fb0025"/><path d="m35.625 28.5h-2.188v-2.186a1.75 1.75 0 1 0 -3.5 0v2.186h-2.187a1.75 1.75 0 1 0 0 3.5h2.187v2.187a1.75 1.75 0 1 0 3.5 0v-2.187h2.188a1.75 1.75 0 0 0 0-3.5z" fill="#5a422c"/><path d="m100.25 28.5h-7.875a1.75 1.75 0 1 0 0 3.5h7.875a1.75 1.75 0 0 0 0-3.5z" fill="#5a422c"/><g fill="#002390"><path d="m109.329 43.819h-17.954v-1.919h11.625a1.75 1.75 0 0 0 0-3.5h-13.375a1.75 1.75 0 0 0 -1.75 1.75v3.667h-29.875a1.75 1.75 0 0 0 0 3.5h49.579v9.5h-87.158v-9.5h24.579a1.75 1.75 0 0 0 0-3.5h-18.25v-1.917h11.625a1.75 1.75 0 0 0 0-3.5h-13.375a1.751 1.751 0 0 0 -1.75 1.75v3.667h-4.579a1.751 1.751 0 0 0 -1.75 1.75v13a1.75 1.75 0 0 0 1.75 1.75h82.579v27.558a1.75 1.75 0 0 0 3.5 0v-27.556h4.579a1.749 1.749 0 0 0 1.75-1.75v-13a1.75 1.75 0 0 0 -1.75-1.75z"/><path d="m51.375 47.319h.688a1.75 1.75 0 0 0 0-3.5h-.688a1.75 1.75 0 0 0 0 3.5z"/><path d="m103 99.936h-76.25v-34.469a1.75 1.75 0 0 0 -3.5 0v36.219a1.751 1.751 0 0 0 1.75 1.75h78a1.75 1.75 0 0 0 0-3.5z"/><path d="m103 92.75a1.749 1.749 0 0 0 -1.75 1.75v.875a1.75 1.75 0 0 0 3.5 0v-.875a1.749 1.749 0 0 0 -1.75-1.75z"/><path d="m72.024 65.254a1.75 1.75 0 0 0 -1.5-.855h-11.253a1.75 1.75 0 0 0 -1.683 1.272l-4.042 14.208a1.75 1.75 0 1 0 3.366.957l3.681-12.936h6.988l-4.224 7.79a1.75 1.75 0 0 0 1.543 2.584h3.925l-6.825 7.526 1.45-4.9a1.75 1.75 0 0 0 -3.356-.993l-3.625 12.25a1.75 1.75 0 0 0 2.974 1.672l14.623-16.129a1.75 1.75 0 0 0 -1.3-2.926h-4.931l4.224-7.791a1.748 1.748 0 0 0 -.035-1.729z"/><path d="m27.75 32h2.187v2.187a1.75 1.75 0 1 0 3.5 0v-2.187h2.188a1.75 1.75 0 0 0 0-3.5h-2.188v-2.186a1.75 1.75 0 1 0 -3.5 0v2.186h-2.187a1.75 1.75 0 1 0 0 3.5z"/><path d="m92.375 32h7.875a1.75 1.75 0 0 0 0-3.5h-7.875a1.75 1.75 0 1 0 0 3.5z"/></g></svg>