<svg id="Layer_1" height="512" viewBox="0 0 128 128" width="512" xmlns="http://www.w3.org/2000/svg" data-name="Layer 1"><circle cx="60.685" cy="67.315" fill="#0087ff" r="42.014"/><circle cx="60.685" cy="67.315" fill="#84c8ff" r="35.886"/><circle cx="60.685" cy="67.315" fill="#fff4ca" r="9.788"/><circle cx="60.685" cy="43.968" fill="#0087ff" r="5.424"/><circle cx="84.032" cy="67.315" fill="#0087ff" r="5.424"/><circle cx="60.685" cy="90.662" fill="#0087ff" r="5.424"/><circle cx="37.338" cy="67.315" fill="#0087ff" r="5.424"/><path d="m60.685 18.671v25.477a23.168 23.168 0 0 1 23.167 23.167h25.477a48.643 48.643 0 0 0 -48.644-48.644z" fill="#ffda2d"/><g fill="#002390"><path d="m36.334 43.393q.333-.339.675-.669a1.75 1.75 0 1 0 -2.428-2.52q-.38.364-.747.74a1.75 1.75 0 0 0 2.5 2.449z"/><path d="m72.223 67.315a11.538 11.538 0 1 0 -22.169 4.492 1.75 1.75 0 0 0 3.224-1.364 8.028 8.028 0 1 1 4.2 4.246 1.75 1.75 0 0 0 -1.4 3.209 11.543 11.543 0 0 0 16.14-10.583z"/><path d="m53.511 90.663a7.174 7.174 0 1 0 7.174-7.175 7.182 7.182 0 0 0 -7.174 7.175zm10.848 0a3.674 3.674 0 1 1 -3.674-3.675 3.679 3.679 0 0 1 3.674 3.675z"/><path d="m30.163 67.315a7.175 7.175 0 1 0 7.175-7.174 7.184 7.184 0 0 0 -7.175 7.174zm7.175-3.674a3.675 3.675 0 1 1 -3.675 3.674 3.679 3.679 0 0 1 3.675-3.674z"/><path d="m91.6 32.05a1.75 1.75 0 0 0 2.31-2.63q-.579-.509-1.175-1a1.75 1.75 0 0 0 -2.228 2.7q.55.458 1.093.93z"/><path d="m99.405 35.059a1.749 1.749 0 1 0 -2.687 2.241 46.957 46.957 0 0 1 10.828 28.265h-22.005a24.838 24.838 0 0 0 -.586-3.8c0-.023 0-.046 0-.069a1.654 1.654 0 0 0 -.065-.256 24.962 24.962 0 0 0 -22.455-18.981v-22.005a46.862 46.862 0 0 1 21.7 6.24 1.75 1.75 0 0 0 1.752-3.029 50.383 50.383 0 0 0 -25.2-6.744 1.75 1.75 0 0 0 -1.75 1.75v4.929a43.76 43.76 0 1 0 45.007 50.4 1.75 1.75 0 1 0 -3.459-.529 40.266 40.266 0 1 1 -41.55-46.371v2.647a37.44 37.44 0 0 0 -18.847 6.069 1.75 1.75 0 0 0 1.918 2.927 33.959 33.959 0 0 1 16.929-5.5v3.776a7.17 7.17 0 0 0 1.75 14.124 1.75 1.75 0 0 0 0-3.5 3.662 3.662 0 0 1 -1.75-6.885v3.391a1.749 1.749 0 0 0 1.75 1.75 21.448 21.448 0 0 1 20.389 14.884 7.171 7.171 0 1 0 9.908 8.282h3.794a34.136 34.136 0 1 1 -62.67-20.427 1.749 1.749 0 1 0 -2.927-1.917 37.636 37.636 0 1 0 69.1 22.344h11.053a1.75 1.75 0 0 0 1.75-1.75 50.447 50.447 0 0 0 -11.677-32.256zm-15.373 35.931a3.662 3.662 0 0 1 -2.159-6.629 21.313 21.313 0 0 1 .229 2.954 1.75 1.75 0 0 0 1.75 1.75h3.391a3.661 3.661 0 0 1 -3.211 1.925z"/></g></svg>