<svg id="Layer_1" height="512" viewBox="0 0 128 128" width="512" xmlns="http://www.w3.org/2000/svg" data-name="Layer 1"><path d="m80.502 29.143h9.125v7.116h-9.125z" fill="#0087ff" transform="matrix(.762 .648 -.648 .762 41.435 -47.31)"/><rect fill="#a07852" height="38.375" rx="3.953" transform="matrix(.762 .648 -.648 .762 49.151 -33.641)" width="17.75" x="61.457" y="30.843"/><path d="m44.112 61.256h9.125v28.5h-9.125z" fill="#0087ff" transform="matrix(.762 .648 -.648 .762 60.495 -13.548)"/><path d="m57.25 79.165h-21.5l-2.428 4.37a9 9 0 0 1 -7.868 4.63h-6.783v17h90.658v-17h-43.079a9 9 0 0 1 -9-9z" fill="#ffda2d"/><circle cx="38.917" cy="37.919" fill="#fb0025" r="15.083"/><path d="m38.917 27.763a1.749 1.749 0 0 0 -1.75 1.75v11.875a1.75 1.75 0 1 0 3.5 0v-11.875a1.75 1.75 0 0 0 -1.75-1.75z" fill="#fff4ca"/><path d="m38.917 44.294a1.749 1.749 0 0 0 -1.75 1.75v.281a1.75 1.75 0 0 0 3.5 0v-.281a1.75 1.75 0 0 0 -1.75-1.75z" fill="#fff4ca"/><path d="m18.671 99.165h90.659v6h-90.659z" fill="#0087ff"/><g fill="#002390"><path d="m60.674 49.437a1.743 1.743 0 0 0 1.334-.617l.7-.828a1.75 1.75 0 1 0 -2.666-2.267l-.7.828a1.751 1.751 0 0 0 1.332 2.884z"/><path d="m109.329 86.415h-43.079a7.258 7.258 0 0 1 -7.25-7.25 1.75 1.75 0 0 0 -1.75-1.75h-1.913l3.219-3.786a1.75 1.75 0 0 0 -2.667-2.268l-5.146 6.054h-7.382l11.267-13.254 5.892 5.009a5.713 5.713 0 0 0 8.04-.65l19.733-23.214a5.653 5.653 0 0 0 .286-6.993l3.6-4.234a1.751 1.751 0 0 0 -.2-2.467l-6.953-5.912a1.75 1.75 0 0 0 -2.267 2.666l5.619 4.779-2.343 2.755-5.892-5.009a5.7 5.7 0 0 0 -8.039.651l-8.004 9.419a1.75 1.75 0 0 0 2.667 2.268l8.008-9.42a2.2 2.2 0 0 1 3.105-.252l7.22 6.143.272.232a2.2 2.2 0 0 1 .251 3.1l-19.729 23.22a2.207 2.207 0 0 1 -3.107.252l-7.5-6.375a2.208 2.208 0 0 1 -.252-3.107l3.294-3.874a1.75 1.75 0 0 0 -2.667-2.267l-3.294 3.875a5.7 5.7 0 0 0 -.284 6.991l-13.318 15.668h-3.016a1.751 1.751 0 0 0 -1.53.9l-2.428 4.371a7.255 7.255 0 0 1 -6.337 3.729h-6.784a1.75 1.75 0 0 0 -1.75 1.75v17a1.75 1.75 0 0 0 1.75 1.75h90.658a1.75 1.75 0 0 0 1.75-1.75v-17a1.75 1.75 0 0 0 -1.75-1.75zm-88.908 17v-2.5h61.912a1.75 1.75 0 0 0 0-3.5h-61.912v-7.5h5.034a10.756 10.756 0 0 0 9.4-5.53l1.928-3.47h18.86a10.766 10.766 0 0 0 10.607 9h41.329v7.5h-11.246a1.75 1.75 0 0 0 0 3.5h11.246v2.5z"/><path d="m38.917 54.752a16.834 16.834 0 1 0 -10.174-30.245 1.75 1.75 0 0 0 2.117 2.787 13.205 13.205 0 0 1 8.057-2.709 13.326 13.326 0 1 1 -11.731 6.989 1.75 1.75 0 1 0 -3.077-1.668 16.838 16.838 0 0 0 14.808 24.846z"/><path d="m89.75 97.415h-.833a1.75 1.75 0 0 0 0 3.5h.833a1.75 1.75 0 0 0 0-3.5z"/></g></svg>