<?xml version="1.0" encoding="iso-8859-1"?>
<!-- Generator: Adobe Illustrator 19.0.0, SVG Export Plug-In . SVG Version: 6.00 Build 0)  -->
<svg version="1.1" id="Layer_1" xmlns="http://www.w3.org/2000/svg" xmlns:xlink="http://www.w3.org/1999/xlink" x="0px" y="0px"
	 viewBox="0 0 511.999 511.999" style="enable-background:new 0 0 511.999 511.999;" xml:space="preserve">
<g>
	<g>
		<path d="M368.359,481.005h-51.493V451.46c-3.516,1.078-7.24,1.72-11.096,1.873c-1.814,0.072-10.131,0.248-19.896,0.412v22.832
			c3.521,8.895,8.023,17.473,3.809,30.078c2.841,3.267,7.018,5.343,11.687,5.343h66.989c8.557,0,15.496-6.938,15.496-15.496
			C383.855,487.942,376.916,481.005,368.359,481.005z"/>
	</g>
</g>
<g>
	<g>
		<path d="M305.612,320.076l-6.581,0.047l9.397,14.764c0,0-8.706-8.43-50.508-46.681l-20.582-48.023
			c-2.809-6.555-10.398-9.592-16.955-6.782c-6.555,2.809-9.591,10.4-6.782,16.955l21.691,50.611
			c0.731,1.705,1.821,3.234,3.196,4.479c37.863,34.271,51.57,46.544,51.57,46.544l-25.088-14.342v68.78l-35.327-0.105
			c-0.006,0-0.011,0-0.017,0c-0.01,0-0.019,0-0.029,0c-10.923,0-18.43,11.032-14.408,21.198l29.551,74.68
			c3.159,7.982,12.456,12.17,20.798,8.393c7.484-3.387,11.074-12.076,8.019-19.796l-21.139-53.416c0,0,39.67,0.116,53.416,0
			c11.262-0.095,21.319-9.706,21.354-22.283l0.201-73.34C327.423,329.64,317.505,319.983,305.612,320.076z"/>
	</g>
</g>
<g>
	<g>
		<path d="M307.03,277.526c-2.377-15.56-16.919-26.248-32.478-23.871c-4.859,0.742-9.241,2.671-12.901,5.445l10.756,25.097
			l17.667,23.84C301.744,303.051,309.035,290.652,307.03,277.526z"/>
	</g>
</g>
<g>
	<g>
		<path d="M492.927,484.979h-16.685V267.248h12.792c6.301,0,11.41-5.109,11.41-11.41c0-6.301-5.109-11.41-11.41-11.41h-12.792
			V16.685C476.242,7.47,468.772,0,459.557,0s-16.685,7.47-16.685,16.685v227.742h-66.696v-12.295
			c15.029,0,23.325-10.518,23.325-21.622v-44.95c0-15.885-6.415-30.27-16.791-40.714l-0.725-3.89l11.602-12.232h23.001
			c6.757,0,12.236-5.478,12.236-12.236v-9.31c0-6.757-5.478-12.236-12.236-12.236h-24.16c-6.757,0-12.236,5.478-12.236,12.236
			c0,9.456-0.038,9.574,0.067,10.581l-2.172,2.29l-15.434-82.741c-1.008-5.401-5.723-9.318-11.217-9.318H160.808
			c-5.494,0-10.209,3.917-11.217,9.318l-15.475,82.955l-2.375-2.504c0.103-1.004,0.066-1.127,0.066-10.581
			c0-6.757-5.478-12.236-12.236-12.236h-24.16c-6.757,0-12.236,5.478-12.236,12.236v9.31c0,6.757,5.478,12.236,12.236,12.236h23.001
			l11.804,12.446l-0.686,3.677c-10.376,10.444-16.79,24.828-16.79,40.714v44.95c0,10.866,8.041,21.622,23.326,21.622v12.295H69.127
			V16.685C69.127,7.47,61.656,0,52.442,0S35.757,7.47,35.757,16.685v227.742H22.965c-6.301,0-11.41,5.109-11.41,11.41
			c0,6.301,5.109,11.41,11.41,11.41h12.792v217.731H19.072c-3.071,0-5.562,2.491-5.562,5.562v15.573
			c0,3.071,2.491,5.562,5.562,5.562h33.37h33.37c3.071,0,5.562-2.491,5.562-5.562v-15.573c0-3.071-2.491-5.562-5.562-5.562H69.127
			V267.248h69.244c4.19,9.458,13.654,16.061,24.665,16.061c14.895,0,26.97-12.074,26.97-26.97v-24.207h10.962
			c2.874-5.368,7.516-9.836,13.548-12.423c13.366-5.727,28.725-0.166,35.457,12.423h72.264v24.207
			c0,14.895,12.074,26.97,26.97,26.97c11.011,0,20.475-6.603,24.665-16.061h69.001v217.731h-16.685
			c-3.071,0-5.562,2.491-5.562,5.562v15.573c0,3.071,2.491,5.562,5.562,5.562h33.37h33.37c3.071,0,5.562-2.491,5.562-5.562v-15.573
			C498.489,487.47,495.999,484.979,492.927,484.979z M162.32,194.887c-13.067,0-23.659-10.599-23.659-23.674
			s10.593-23.674,23.659-23.674s23.659,10.599,23.659,23.674S175.386,194.887,162.32,194.887z M282.726,213.426h-53.211
			c-4.754,0-8.608-3.854-8.608-8.609s3.854-8.609,8.608-8.609h53.211c4.754,0,8.608,3.854,8.608,8.609
			S287.481,213.426,282.726,213.426z M296.94,180.625h-81.639c-4.754,0-8.608-3.854-8.608-8.609s3.854-8.609,8.608-8.609h81.639
			c4.754,0,8.608,3.854,8.608,8.609S301.694,180.625,296.94,180.625z M283.34,107.79c1.307-9.064,9.104-16.06,18.525-16.06
			c9.42,0,17.217,6.994,18.524,16.06H283.34z M301.865,72.713c-19.916,0-36.269,15.505-37.649,35.076h-93.703
			c-5.172,0-10.181,0.69-14.951,1.964l14.726-78.944h63.601c-1.076,1.592-1.704,3.51-1.704,5.576c0,5.506,4.464,9.97,9.97,9.97
			h27.935c5.506,0,9.97-4.464,9.97-9.97c0-2.066-0.628-3.984-1.704-5.576h63.601l14.725,78.944
			c-7.455-1.992-12.9-1.964-17.168-1.964C338.133,88.218,321.782,72.713,301.865,72.713z M349.922,194.887
			c-13.067,0-23.659-10.599-23.659-23.674s10.593-23.674,23.659-23.674c13.067,0,23.659,10.599,23.659,23.674
			S362.989,194.887,349.922,194.887z"/>
	</g>
</g>
<g>
</g>
<g>
</g>
<g>
</g>
<g>
</g>
<g>
</g>
<g>
</g>
<g>
</g>
<g>
</g>
<g>
</g>
<g>
</g>
<g>
</g>
<g>
</g>
<g>
</g>
<g>
</g>
<g>
</g>
</svg>
