<?xml version="1.0" encoding="iso-8859-1"?>
<!-- Generator: Adobe Illustrator 19.0.0, SVG Export Plug-In . SVG Version: 6.00 Build 0)  -->
<svg version="1.1" id="Layer_1" xmlns="http://www.w3.org/2000/svg" xmlns:xlink="http://www.w3.org/1999/xlink" x="0px" y="0px"
	 viewBox="0 0 512 512" style="enable-background:new 0 0 512 512;" xml:space="preserve">
<g transform="translate(1 1)">
	<g>
		<g>
			<path d="M484.547,379.587l-11.947-2.56c-5.973-0.853-10.24-5.12-12.8-10.24c-2.56-5.973-1.707-11.093,1.707-16.213l7.68-10.24
				c2.56-3.413,1.707-8.533-0.853-11.093l-17.067-17.067c-1.833-1.375-3.912-2.25-5.973-2.376V41.667
				c0-14.507-11.093-25.6-25.6-25.6H308.76C308.76,6.68,301.08-1,291.693-1H172.227c-9.387,0-17.067,7.68-17.067,17.067H44.227
				c-14.507,0-25.6,11.093-25.6,25.6V485.4c0,14.507,11.093,25.6,25.6,25.6h322.56h23.893c4.267,0,7.68-3.413,11.947-7.68
				l1.707-9.387c0.853-5.973,5.12-10.24,10.24-12.8c5.12-2.56,11.093-1.707,16.213,1.707l7.68,5.12
				c3.413,2.56,8.533,1.707,11.093-0.853l17.067-17.067c2.56-3.413,3.413-7.68,0.853-11.093l-6.827-10.24
				c-3.413-5.12-4.267-11.093-1.707-16.213c2.56-5.973,6.827-9.387,12.8-10.24l12.8-1.707c3.413-0.853,6.827-4.267,6.827-8.533
				V388.12C491.373,383.853,488.813,380.44,484.547,379.587z M172.227,84.333h119.467c9.387,0,17.067-7.68,17.067-17.067h88.747
				v220.074c-1.042-0.48-2.191-0.767-3.413-0.767H370.2c-2.718,0-5.086,1.042-6.67,2.899c-1.349,1.162-2.317,2.781-2.716,4.781
				l-3.413,16.213c-0.472,3.307-1.994,6.088-4.124,8.349c-1.545,1.439-3.344,2.638-5.263,3.598
				c-5.973,1.707-11.093,1.707-16.213-1.707l-13.653-9.387c-3.413-2.56-8.533-1.707-11.093,0.853l-8.96,8.96l-8.107,8.107
				c-0.669,0.502-1.203,1.104-1.616,1.771c-1.937,2.732-2.374,7.13-0.091,10.175l7.68,10.24c3.413,5.12,4.267,11.093,1.707,16.213
				c-0.96,1.919-2.159,3.719-3.599,5.263c-2.261,2.13-5.042,3.651-8.348,4.123l-11.947,2.56c-2,0.4-3.618,1.367-4.781,2.716
				c-1.857,1.584-2.899,3.952-2.899,6.67v23.893c0,2.718,1.042,5.086,2.899,6.67c1.162,1.349,2.781,2.317,4.781,2.717l12.8,1.707
				c3.306,0.472,6.087,1.993,8.348,4.123c1.44,1.545,2.639,3.344,3.599,5.264c2.56,5.12,1.707,11.093-1.707,16.213l-6.827,10.24
				H69.827V67.267h85.333C155.16,76.653,162.84,84.333,172.227,84.333z M423.107,33.133c5.12,0,8.533,3.413,8.533,8.533V316.44
				l-0.853,0.853c-5.12,3.413-11.093,4.267-16.213,1.707c-1.253-0.537-2.386-1.153-3.413-1.84V67.267
				c0-9.387-7.68-17.067-17.067-17.067H308.76V33.133H423.107z M172.227,16.067h119.467V24.6v34.133v8.533H172.227v-8.533V24.6
				V16.067z M35.693,485.4V41.667c0-5.12,3.413-8.533,8.533-8.533H155.16V50.2H69.827c-9.387,0-17.067,7.68-17.067,17.067V459.8
				c0,9.387,7.68,17.067,17.067,17.067h226.987l11.093,11.093c2.56,2.56,7.68,3.413,11.093,0.853l10.24-7.68
				c5.12-3.413,11.093-4.267,16.213-1.707s9.387,6.827,10.24,12.8l0.366,1.707H44.227C39.107,493.933,35.693,490.52,35.693,485.4z
				 M470.04,406.893l-5.973,0.853c-11.093,1.707-21.333,8.533-25.6,19.627c-4.267,10.24-3.413,23.04,3.413,32.427l4.267,4.267
				l-6.827,6.827l-1.707-0.853c-10.24-7.68-22.187-8.533-33.28-4.267c-11.093,5.12-18.773,14.507-20.48,26.453v1.707h-9.387
				l-1.707-5.973c-1.707-11.093-9.387-20.48-20.48-24.747c-11.093-4.267-23.04-2.56-32.427,4.267l-4.267,3.413l-6.827-6.827
				l2.56-4.267c6.827-9.387,7.68-21.333,3.413-32.427c-4.267-10.24-13.653-17.92-25.6-19.627l-5.973-0.853v-9.387l5.973-1.707
				c11.093-1.707,20.48-9.387,24.747-20.48c4.267-11.093,2.56-23.04-4.267-32.427l-3.413-4.267l6.827-6.827l7.68,5.12
				c9.387,6.827,21.333,7.68,31.573,3.413c11.093-4.267,17.92-13.653,20.48-24.747l1.707-9.387h9.387l0.853,6.827
				c1.707,11.093,9.387,21.333,19.627,25.6c10.24,4.267,23.04,3.413,32.427-3.413l4.584-3.056l6.509,7.323l-3.413,4.267
				c-6.827,9.387-8.533,21.333-4.267,32.427c4.267,10.24,13.653,17.92,24.747,20.48l5.12,0.853V406.893z"/>
			<path d="M377.027,357.4c-23.893,0-42.667,18.773-42.667,42.667c0,23.893,18.773,42.667,42.667,42.667
				s42.667-18.773,42.667-42.667C419.693,376.173,400.92,357.4,377.027,357.4z M377.027,425.667c-14.507,0-25.6-11.093-25.6-25.6
				c0-14.507,11.093-25.6,25.6-25.6c14.507,0,25.6,11.093,25.6,25.6C402.627,414.573,391.533,425.667,377.027,425.667z"/>
			<path d="M117.613,177.347c-12.8,0-22.187,10.24-22.187,22.187v33.28c0,12.8,9.387,22.187,22.187,22.187h13.034
				c3.814,14.679,17.216,25.6,33.046,25.6c15.829,0,29.232-10.921,33.046-25.6h70.442c3.814,14.679,17.216,25.6,33.046,25.6
				c15.829,0,29.232-10.921,33.046-25.6h13.034c12.8,0,22.187-9.387,23.04-22.187v-33.28c0-12.8-10.24-22.187-22.187-22.187h-18.176
				l-33.024-46.08c-5.12-7.68-13.653-11.947-23.04-11.947h-36.925c-1.169-0.55-2.525-0.853-4.035-0.853s-2.865,0.304-4.035,0.853
				H191c-9.387,0-17.92,4.267-23.04,11.947l-33.024,46.08H117.613z M163.693,263.533c-9.387,0-17.067-7.68-17.067-17.067
				s7.68-17.067,17.067-17.067c9.387,0,17.067,7.68,17.067,17.067S173.08,263.533,163.693,263.533z M300.227,263.533
				c-9.387,0-17.067-7.68-17.067-17.067s7.68-17.067,17.067-17.067s17.067,7.68,17.067,17.067S309.613,263.533,300.227,263.533z
				 M352.28,199.533v33.28c0,2.56-2.56,5.12-5.12,5.12h-13.653c-4.267-14.507-15.36-25.6-31.573-25.6
				c-0.311,0-0.62,0.012-0.929,0.02c-0.259-0.006-0.517-0.02-0.778-0.02c-15.83,0-29.232,10.921-33.046,25.6h-69.354
				c-4.267-14.507-17.067-25.6-33.28-25.6c-0.156,0-0.309,0.008-0.464,0.01c-0.13-0.001-0.258-0.01-0.389-0.01
				c-15.83,0-29.232,10.921-33.046,25.6h-13.034c-2.56,0-5.12-2.56-5.12-5.12v-33.28c0-2.56,2.56-5.12,5.12-5.12h16.642
				c1.132,0.538,2.405,0.853,3.838,0.853h187.733c1.433,0,2.706-0.315,3.838-0.853h17.495
				C349.72,194.413,352.28,196.973,352.28,199.533z M281.453,139.8l26.7,37.547h-67.66v-41.813h31.573
				C276.333,135.533,279.747,137.24,281.453,139.8z M180.76,139.8c2.56-2.56,5.973-4.267,9.387-4.267h33.28v41.813h-68.532
				L180.76,139.8z"/>
			<path d="M231.96,323.267h-128c-5.12,0-8.533,3.413-8.533,8.533c0,5.12,3.413,8.533,8.533,8.533h128
				c5.12,0,8.533-3.413,8.533-8.533C240.493,326.68,237.08,323.267,231.96,323.267z"/>
			<path d="M231.96,365.933h-128c-5.12,0-8.533,3.413-8.533,8.533S98.84,383,103.96,383h128c5.12,0,8.533-3.413,8.533-8.533
				S237.08,365.933,231.96,365.933z"/>
			<path d="M231.96,408.6h-128c-5.12,0-8.533,3.413-8.533,8.533s3.413,8.533,8.533,8.533h128c5.12,0,8.533-3.413,8.533-8.533
				S237.08,408.6,231.96,408.6z"/>
		</g>
	</g>
</g>
<g>
</g>
<g>
</g>
<g>
</g>
<g>
</g>
<g>
</g>
<g>
</g>
<g>
</g>
<g>
</g>
<g>
</g>
<g>
</g>
<g>
</g>
<g>
</g>
<g>
</g>
<g>
</g>
<g>
</g>
</svg>
