<?xml version="1.0" encoding="iso-8859-1"?>
<!-- Generator: Adobe Illustrator 19.0.0, SVG Export Plug-In . SVG Version: 6.00 Build 0)  -->
<svg version="1.1" id="Layer_1" xmlns="http://www.w3.org/2000/svg" xmlns:xlink="http://www.w3.org/1999/xlink" x="0px" y="0px"
	 viewBox="0 0 512 512" style="enable-background:new 0 0 512 512;" xml:space="preserve">
<g transform="translate(1 1)">
	<g>
		<g>
			<path d="M447,312.514V41.667c0-14.507-11.093-25.6-25.6-25.6H310.467C310.467,6.68,302.787-1,293.4-1H173.933
				c-9.387,0-17.067,7.68-17.067,17.067H45.933c-14.507,0-25.6,11.093-25.6,25.6V485.4c0,14.507,11.093,25.6,25.6,25.6h332.8
				c61.44,0,110.933-49.493,110.933-110.933C489.667,364.413,472.997,332.785,447,312.514z M421.4,33.133
				c5.12,0,8.533,3.413,8.533,8.533v259.897c-5.438-2.822-11.143-5.206-17.067-7.109V67.267c0-9.387-7.68-17.067-17.067-17.067
				h-85.333V33.133H421.4z M267.859,403.539c0.005,0.169,0.013,0.338,0.019,0.506c0.717,20.51,6.948,39.573,17.271,55.755H71.533
				V67.267h85.333c0,9.387,7.68,17.067,17.067,17.067H293.4c9.387,0,17.067-7.68,17.067-17.067H395.8v223.163
				c-1.191-0.183-2.39-0.341-3.594-0.486c-0.084-0.01-0.169-0.019-0.253-0.029c-0.941-0.111-1.885-0.21-2.833-0.297
				c-0.239-0.022-0.477-0.043-0.716-0.063c-0.803-0.069-1.608-0.129-2.416-0.18c-0.294-0.019-0.589-0.039-0.883-0.056
				c-0.782-0.044-1.566-0.077-2.352-0.105c-0.287-0.01-0.573-0.024-0.86-0.032c-1.05-0.029-2.102-0.047-3.159-0.047
				c-61.44,0-110.933,49.493-110.933,110.933C267.8,401.229,267.824,402.385,267.859,403.539z M173.933,16.067H293.4V24.6v34.133
				v8.533H173.933v-8.533V24.6V16.067z M45.933,493.933c-5.12,0-8.533-3.413-8.533-8.533V41.667c0-5.12,3.413-8.533,8.533-8.533
				h110.933V50.2H71.533c-9.387,0-17.067,7.68-17.067,17.067V459.8c0,9.387,7.68,17.067,17.067,17.067H298.56
				c6.227,6.5,13.242,12.237,20.893,17.067H45.933z M378.733,493.933c-27.118,0-51.453-11.353-68.548-29.585
				c-0.343-0.704-0.808-1.371-1.425-1.988c-14.389-15.988-22.786-36.469-23.79-57.935c-0.002-0.053-0.004-0.105-0.006-0.158
				c-0.063-1.397-0.097-2.797-0.097-4.201c0-52.053,41.813-93.867,93.867-93.867c1.099,0,2.194,0.025,3.287,0.063
				c0.1,0.003,0.199,0.008,0.299,0.011c0.247,0.009,0.494,0.023,0.741,0.034c0.727,0.033,1.452,0.076,2.176,0.125
				c0.659,0.047,1.319,0.095,1.978,0.159c0.092,0.008,0.184,0.018,0.275,0.027c4.761,0.479,9.523,1.407,14.284,2.995
				c0.995,0.332,1.991,0.399,2.986,0.265c8.963,2.593,17.641,6.553,25.939,11.896c25.3,16.77,41.901,45.496,41.901,78.292
				C472.6,452.12,430.787,493.933,378.733,493.933z"/>
			<path d="M435.053,351.427c-4.267-3.413-9.387-2.56-11.947,1.707L375.32,421.4l-33.28-27.307
				c-3.413-3.413-9.387-2.56-11.947,0.853c-3.413,3.413-2.56,9.387,0.853,11.947l40.96,33.28c0.853,0.853,3.413,1.707,5.12,1.707
				c0,0,0.853,0,0.853,0.853c2.56,0,4.267-1.707,5.973-3.413l52.907-75.947C440.173,359.107,439.32,353.987,435.053,351.427z"/>
			<path d="M301.933,280.6c15.829,0,29.232-10.921,33.046-25.6h13.034c12.8,0,22.187-9.387,23.04-22.187v-33.28
				c0-12.8-10.24-22.187-22.187-22.187h-18.176l-33.024-46.08c-5.12-7.68-13.653-11.947-23.04-11.947h-36.925
				c-1.169-0.55-2.525-0.853-4.035-0.853s-2.865,0.304-4.035,0.853h-36.925c-9.387,0-17.92,4.267-23.04,11.947l-33.024,46.08H119.32
				c-12.8,0-22.187,10.24-22.187,22.187v33.28c0,12.8,9.387,22.187,22.187,22.187h13.034c3.814,14.679,17.216,25.6,33.046,25.6
				c15.829,0,29.232-10.921,33.046-25.6h70.442C272.702,269.679,286.104,280.6,301.933,280.6z M301.933,263.533
				c-9.387,0-17.067-7.68-17.067-17.067s7.68-17.067,17.067-17.067S319,237.08,319,246.467S311.32,263.533,301.933,263.533z
				 M283.16,139.8l26.7,37.547H242.2v-41.813h31.573C278.04,135.533,281.453,137.24,283.16,139.8z M182.467,139.8
				c2.56-2.56,5.973-4.267,9.387-4.267h33.28v41.813h-68.532L182.467,139.8z M165.4,263.533c-9.387,0-17.067-7.68-17.067-17.067
				s7.68-17.067,17.067-17.067c9.387,0,17.067,7.68,17.067,17.067S174.787,263.533,165.4,263.533z M166.253,212.333
				c-0.156,0-0.309,0.008-0.464,0.01c-0.13-0.001-0.258-0.01-0.389-0.01c-15.83,0-29.232,10.921-33.046,25.6H119.32
				c-2.56,0-5.12-2.56-5.12-5.12v-33.28c0-2.56,2.56-5.12,5.12-5.12h16.642c1.132,0.538,2.405,0.853,3.838,0.853h187.733
				c1.433,0,2.706-0.315,3.838-0.853h17.495c2.56,0,5.12,2.56,5.12,5.12v33.28c0,2.56-2.56,5.12-5.12,5.12h-13.653
				c-4.267-14.507-15.36-25.6-31.573-25.6c-0.311,0-0.62,0.012-0.929,0.02c-0.259-0.006-0.517-0.02-0.778-0.02
				c-15.83,0-29.232,10.921-33.046,25.6h-69.354C195.267,223.427,182.467,212.333,166.253,212.333z"/>
			<path d="M233.667,323.267h-128c-5.12,0-8.533,3.413-8.533,8.533c0,5.12,3.413,8.533,8.533,8.533h128
				c5.12,0,8.533-3.413,8.533-8.533C242.2,326.68,238.787,323.267,233.667,323.267z"/>
			<path d="M233.667,365.933h-128c-5.12,0-8.533,3.413-8.533,8.533s3.413,8.533,8.533,8.533h128c5.12,0,8.533-3.413,8.533-8.533
				S238.787,365.933,233.667,365.933z"/>
			<path d="M233.667,408.6h-128c-5.12,0-8.533,3.413-8.533,8.533s3.413,8.533,8.533,8.533h128c5.12,0,8.533-3.413,8.533-8.533
				S238.787,408.6,233.667,408.6z"/>
		</g>
	</g>
</g>
<g>
</g>
<g>
</g>
<g>
</g>
<g>
</g>
<g>
</g>
<g>
</g>
<g>
</g>
<g>
</g>
<g>
</g>
<g>
</g>
<g>
</g>
<g>
</g>
<g>
</g>
<g>
</g>
<g>
</g>
</svg>
