<svg id="Layer_1" height="512" viewBox="0 0 128 128" width="512" xmlns="http://www.w3.org/2000/svg" data-name="Layer 1"><path d="m51.266 45.801h38.274v19.317h-38.274z" fill="#0087ff" transform="matrix(.707 .707 -.707 .707 59.836 -33.539)"/><path d="m67.222 40.99h26.35v8.951h-26.35z" fill="#ffda2d" transform="matrix(.707 .707 -.707 .707 55.696 -43.533)"/><path d="m80.765 26.002h19.095v19.095h-19.095z" fill="#fff4ca" transform="matrix(.707 .707 -.707 .707 51.589 -53.449)"/><path d="m101.088 24.774a5.69 5.69 0 0 0 -8.048 0l8.048 8.048a5.69 5.69 0 0 0 0-8.048z" fill="#5a422c"/><path d="m77.39 34.151h19.095v9.548h-19.095z" fill="#a07852" transform="matrix(.707 .707 -.707 .707 52.987 -50.073)"/><path d="m33.005 99.05-6.193-6.193a5.477 5.477 0 0 1 -.159-7.58l28.7-31.214 16.447 16.451-31.214 28.7a5.477 5.477 0 0 1 -7.581-.164z" fill="#ffda2d"/><path d="m19.468 106.394a2.721 2.721 0 0 1 -.241-3.573l7.585-9.964 6.193 6.193-9.964 7.585a2.721 2.721 0 0 1 -3.573-.241z" fill="#0087ff"/><g fill="#fb0025"><path d="m54.017 65.275a1.747 1.747 0 0 1 -1.238-.512l-3.753-3.753a1.75 1.75 0 1 1 2.474-2.475l3.753 3.753a1.75 1.75 0 0 1 -1.237 2.987z"/><path d="m48.889 71.11a1.747 1.747 0 0 1 -1.238-.512l-3.876-3.877a1.75 1.75 0 1 1 2.475-2.475l3.876 3.877a1.75 1.75 0 0 1 -1.237 2.987z"/><path d="m43.835 76.872a1.741 1.741 0 0 1 -1.237-.513l-4-4a1.749 1.749 0 0 1 2.474-2.474l4 4a1.75 1.75 0 0 1 -1.237 2.987z"/><path d="m66.09 77.349a1.741 1.741 0 0 1 -1.237-.513l-3.753-3.753a1.75 1.75 0 0 1 2.474-2.475l3.753 3.753a1.751 1.751 0 0 1 -1.237 2.988z"/><path d="m60.378 82.6a1.741 1.741 0 0 1 -1.237-.513l-3.876-3.876a1.75 1.75 0 1 1 2.474-2.475l3.876 3.876a1.751 1.751 0 0 1 -1.237 2.988z"/><path d="m54.743 87.78a1.746 1.746 0 0 1 -1.237-.512l-4-4a1.75 1.75 0 1 1 2.475-2.475l4 4a1.75 1.75 0 0 1 -1.237 2.987z"/></g><path d="m73.753 47.625.687.688a1.75 1.75 0 1 0 2.475-2.475l-.687-.688a1.75 1.75 0 0 0 -2.475 2.475z" fill="#002390"/><path d="m108.816 22.1-2.525-2.526a1.75 1.75 0 0 0 -2.475 2.475l2.526 2.525a4.228 4.228 0 0 1 0 5.977l-2.527 2.526-.405-.405a7.431 7.431 0 0 0 -10.217-10.219l-1.643-1.643a1.749 1.749 0 0 0 -2.475 0l-12.265 12.265-1.328-1.328a1.748 1.748 0 0 0 -2.474 0l-5.092 5.092-2.979-2.979a1.75 1.75 0 0 0 -2.474 0l-13.663 13.66a1.748 1.748 0 0 0 0 2.474l4.12 4.12-27.556 29.979a7.211 7.211 0 0 0 .211 10l4.776 4.775-8.37 6.373a.972.972 0 0 1 -1.362-1.362l3.93-5.162a1.75 1.75 0 0 0 -2.785-2.117l-3.93 5.162a4.473 4.473 0 0 0 6.268 6.266l8.883-6.763a7.2 7.2 0 0 0 8.785-.768 1.75 1.75 0 1 0 -2.37-2.576 3.721 3.721 0 0 1 -5.158-.108l-6.192-6.193a3.72 3.72 0 0 1 -.11-5.158l11.86-12.9 2.8 2.8a1.749 1.749 0 0 0 2.474-2.474l-2.9-2.9 2.811-3.057 2.67 2.672a1.75 1.75 0 0 0 2.475-2.475l-2.775-2.775 2.88-3.133 2.548 2.548a1.75 1.75 0 1 0 2.475-2.475l-2.658-2.657 2.8-3.045 13.87 13.87-3.045 2.8-2.652-2.652a1.75 1.75 0 0 0 -2.473 2.474l2.547 2.547-3.133 2.881-2.775-2.775a1.75 1.75 0 1 0 -2.474 2.475l2.67 2.67-3.056 2.81-2.9-2.9a1.75 1.75 0 1 0 -2.479 2.474l2.8 2.8-3.444 3.166a1.75 1.75 0 0 0 2.37 2.576l20.522-18.869 4.12 4.12a1.752 1.752 0 0 0 2.475 0l13.657-13.658a1.748 1.748 0 0 0 0-2.474l-2.979-2.979 5.092-5.091a1.749 1.749 0 0 0 0-2.475l-14.83-14.83 11.029-11.03 9.535 9.534v.005l1.486 1.486-4.277 4.277-7.511-7.512a1.75 1.75 0 0 0 -2.475 2.475l7.52 7.514-1.52 1.52a1.75 1.75 0 1 0 2.475 2.48l2.755-2.761 6.75-6.751 3.763-3.764a7.724 7.724 0 0 0 0-10.925zm-22.267 33.371-5.386-5.385a1.75 1.75 0 1 0 -2.475 2.475l9.6 9.6-11.183 11.185-24.589-24.589 11.184-11.185 2.976 2.976 2.484 2.484a1.75 1.75 0 1 0 2.475-2.474l-1.25-1.25 3.854-3.854 16.161 16.162zm13.3-29.46a3.935 3.935 0 0 1 .934 4.033l-4.967-4.967a3.936 3.936 0 0 1 4.035.934z" fill="#002390"/><path d="m44.591 93.149-.763.7a1.75 1.75 0 1 0 2.372 2.578l.763-.7a1.75 1.75 0 0 0 -2.369-2.577z" fill="#002390"/></svg>