<svg id="Layer_1" height="512" viewBox="0 0 128 128" width="512" xmlns="http://www.w3.org/2000/svg" data-name="Layer 1"><g fill="#0087ff"><path d="m27.538 37.968a1.75 1.75 0 1 0 -3.023 1.764l4.362 7.476a1.75 1.75 0 1 0 3.023-1.763z"/><path d="m102.978 37.13a1.754 1.754 0 0 0 -2.394.63l-4.484 7.685a1.75 1.75 0 0 0 3.023 1.763l4.484-7.684a1.751 1.751 0 0 0 -.629-2.394z"/><path d="m24 64.68h80v7.843h-80z"/></g><path d="m28.052 72.523h15.425a0 0 0 0 1 0 0v7.453a4.62 4.62 0 0 1 -4.62 4.62h-6.185a4.62 4.62 0 0 1 -4.62-4.62v-7.453a0 0 0 0 1 0 0z" fill="#5a422c"/><path d="m84.523 72.523h15.425a0 0 0 0 1 0 0v7.453a4.62 4.62 0 0 1 -4.62 4.62h-6.185a4.62 4.62 0 0 1 -4.62-4.62v-7.453a0 0 0 0 1 0 0z" fill="#5a422c"/><path d="m29.212 51.326 6.213-26.4a8.376 8.376 0 0 1 8.154-6.458h40.842a8.376 8.376 0 0 1 8.154 6.458l6.213 26.4z" fill="#0087ff"/><path d="m83.458 23.466h-38.916a4.594 4.594 0 0 0 -4.471 3.54l-4.545 19.32h56.948l-4.545-19.32a4.594 4.594 0 0 0 -4.471-3.54z" fill="#84c8ff"/><path d="m18.671 36.617h8.204v6.438h-8.204z" fill="#fb0025"/><path d="m101.125 36.617h8.204v6.438h-8.204z" fill="#fb0025" transform="matrix(-1 0 0 -1 210.454 79.672)"/><path d="m92.474 46.326h-56.948a7.474 7.474 0 0 0 -7.474 7.474v10.88h71.9v-10.88a7.474 7.474 0 0 0 -7.478-7.474z" fill="#fb0025"/><circle cx="38.926" cy="60.091" fill="#ffda2d" r="4.588"/><circle cx="89.074" cy="60.091" fill="#ffda2d" r="4.588"/><path d="m75.5 91.95h-23l3-19.427h17z" fill="#5a422c"/><path d="m18.671 91.95h90.659v5.881h-90.659z" fill="#0087ff"/><path d="m24 97.83h80v11.499h-80z" fill="#ffda2d"/><path d="m54.333 20.421h.834a1.75 1.75 0 0 0 0-3.5h-.834a1.75 1.75 0 0 0 0 3.5z" fill="#002390"/><path d="m100.581 44.915a1.75 1.75 0 0 0 .544.095h8.2a1.749 1.749 0 0 0 1.75-1.75v-6.438a1.749 1.749 0 0 0 -1.75-1.75h-8.2a1.749 1.749 0 0 0 -1.75 1.75v3.214l-1.065 1.826-4.032-17.134a10.086 10.086 0 0 0 -9.856-7.807h-22.339a1.75 1.75 0 0 0 0 3.5h22.339a6.6 6.6 0 0 1 6.45 5.108l4.654 19.782a9.157 9.157 0 0 0 -3.051-.53h-54.741l4.04-17.169a2.834 2.834 0 0 1 2.768-2.191h38.916a2.834 2.834 0 0 1 2.768 2.19l3.019 12.833a1.749 1.749 0 1 0 3.406-.8l-3.019-12.834a6.319 6.319 0 0 0 -6.174-4.889h-38.916a6.319 6.319 0 0 0 -6.174 4.89l-4.256 18.089a9.2 9.2 0 0 0 -1.638.41l4.654-19.78a6.6 6.6 0 0 1 6.45-5.109h4.839a1.75 1.75 0 0 0 0-3.5h-4.839a10.085 10.085 0 0 0 -9.856 7.808l-4.032 17.133-1.065-1.826v-3.214a1.749 1.749 0 0 0 -1.75-1.75h-8.2a1.749 1.749 0 0 0 -1.75 1.75v6.438a1.749 1.749 0 0 0 1.75 1.75h8.2a1.75 1.75 0 0 0 .544-.095l1.107 1.9-.4 1.716a9.16 9.16 0 0 0 -1.826 5.474v9.13h-2.3a1.749 1.749 0 0 0 -1.75 1.75v7.843a1.75 1.75 0 0 0 1.75 1.75h2.3v5.7a6.377 6.377 0 0 0 6.37 6.37h6.184a6.378 6.378 0 0 0 6.371-6.37 1.75 1.75 0 0 0 -3.5 0 2.873 2.873 0 0 1 -2.871 2.87h-6.181a2.873 2.873 0 0 1 -2.87-2.87v-5.7h23.652l-2.455 15.722h-32.329a1.749 1.749 0 0 0 -1.75 1.75v5.88a1.749 1.749 0 0 0 1.75 1.75h59.329a1.75 1.75 0 0 0 0-3.5h-57.579v-2.38h87.158v2.38h-15.345a1.75 1.75 0 0 0 0 3.5h10.016v8h-76.5v-4a1.75 1.75 0 0 0 -3.5 0v5.749a1.749 1.749 0 0 0 1.75 1.75h80a1.749 1.749 0 0 0 1.75-1.75v-9.749h3.579a1.749 1.749 0 0 0 1.75-1.75v-5.88a1.749 1.749 0 0 0 -1.75-1.75h-32.329l-1.827-11.7a1.75 1.75 0 1 0 -3.459.539l1.741 11.161h-18.91l2.455-15.722h25.772v5.7a6.378 6.378 0 0 0 6.371 6.37h6.184a6.377 6.377 0 0 0 6.37-6.37v-5.7h2.303a1.75 1.75 0 0 0 1.75-1.75v-7.843a1.749 1.749 0 0 0 -1.75-1.75h-2.3v-9.13a9.16 9.16 0 0 0 -1.819-5.477l-.4-1.716zm2.294-6.343h4.7v2.938h-4.7zm-77.75 2.938h-4.7v-2.938h4.7zm73.075 38.671a2.873 2.873 0 0 1 -2.87 2.87h-6.187a2.873 2.873 0 0 1 -2.871-2.87v-5.7h11.928zm4.053-9.2h-76.503v-4.346h76.5zm-66.165-10.681a2.839 2.839 0 1 1 2.838 2.839 2.841 2.841 0 0 1 -2.838-2.839zm50.147 0a2.839 2.839 0 1 1 2.839 2.839 2.842 2.842 0 0 1 -2.839-2.839zm8.5 2.839a6.339 6.339 0 1 0 -11.318 0h-38.832a6.338 6.338 0 1 0 -11.318 0h-3.467v-9.13a5.73 5.73 0 0 1 5.722-5.724h56.95a5.73 5.73 0 0 1 5.728 5.72v9.13z" fill="#002390"/><path d="m85.25 99.58a1.75 1.75 0 0 0 0-3.5h-.727a1.75 1.75 0 0 0 0 3.5z" fill="#002390"/></svg>