<svg id="Layer_5" enable-background="new 0 0 64 64" height="512" viewBox="0 0 64 64" width="512" xmlns="http://www.w3.org/2000/svg"><path d="m30 49c-2.757 0-5 2.243-5 5s2.243 5 5 5 5-2.243 5-5-2.243-5-5-5zm0 8c-1.654 0-3-1.346-3-3s1.346-3 3-3 3 1.346 3 3-1.346 3-3 3z"/><path d="m63 17h-14.947c-3.479 0-6.79 1.673-8.854 4.475l-10.751 14.59-5.9.787c-3.14.419-5.829 2.161-7.547 4.611v-23.988c2.481-1.664 4-4.476 4-7.475 0-3.244-1.724-6.258-4.499-7.865l-1.208-.7-1.192 5.963-2.102 1.4-2.101-1.4-1.192-5.963-1.208.7c-2.775 1.607-4.499 4.621-4.499 7.865 0 2.999 1.519 5.812 4 7.475v25.129c-2.481 1.664-4 4.476-4 7.475 0 3.244 1.724 6.258 4.499 7.865l1.208.7 1.192-5.963 2.101-1.4 1.531 1.021c-.333.483-.531 1.067-.531 1.698v2c0 1.654 1.346 3 3 3h8.522c1.617 2.41 4.365 4 7.478 4s5.862-1.59 7.478-4h25.522zm-33.447 20.935 11.255-15.274c1.689-2.292 4.398-3.661 7.245-3.661h12.947v2h-12.466c-1.904 0-3.713.917-4.839 2.452l-5.129 6.994c-2.661.991-4.566 3.551-4.566 6.554v1 7.95c-1.207-.603-2.562-.95-4-.95-3.91 0-7.236 2.51-8.475 6h-6.525v-3-.245c0-.516.049-1.022.135-1.517.874.482 1.847.762 2.865.762 3.309 0 6-2.691 6-6 0-.785-.173-1.544-.473-2.261zm11.447-5.935h1c1.103 0 2 .897 2 2s-.897 2-2 2h-2-3.899c.464-2.279 2.484-4 4.899-4zm1-2h-.627l3.935-5.366c.751-1.023 1.957-1.634 3.226-1.634h12.466v13h-15.556c.344-.591.556-1.268.556-2 0-2.206-1.794-4-4-4zm-20.491 9.116c.322.584.491 1.224.491 1.884 0 2.206-1.794 4-4 4-.826 0-1.613-.263-2.282-.734 1.046-2.463 3.158-4.388 5.791-5.15zm-15.408 12.361-.775 3.877c-1.461-1.324-2.326-3.241-2.326-5.275 0-2.484 1.342-4.805 3.501-6.056l.499-.289v-27.39l-.499-.289c-2.159-1.25-3.501-3.571-3.501-6.055 0-2.034.865-3.951 2.325-5.275l.775 3.877 3.899 2.6 3.899-2.6.775-3.877c1.462 1.324 2.327 3.241 2.327 5.275 0 2.484-1.342 4.805-3.501 6.056l-.499.289v31.411.244 2.877l-3-2zm7.899 5.523c-.552 0-1-.449-1-1v-2c0-.551.448-1 1-1h7.059c-.037.329-.059.662-.059 1 0 1.053.191 2.06.525 3zm16 4c-3.859 0-7-3.14-7-7s3.141-7 7-7 7 3.14 7 7-3.141 7-7 7zm8.475-4c.334-.94.525-1.947.525-3 0-2.656-1.164-5.04-3-6.689v-9.311h4 2 19v19z"/><path d="m51 43c0 1.654 1.346 3 3 3h2c1.654 0 3-1.346 3-3v-3h-8zm2-1h4v1c0 .551-.448 1-1 1h-2c-.552 0-1-.449-1-1z"/><path d="m26 17h2.586l4.292 4.292c.449.45 1.071.708 1.708.708 1.331 0 2.414-1.083 2.414-2.414v-2.586h3c2.757 0 5-2.243 5-5v-6c0-2.757-2.243-5-5-5h-14c-2.757 0-5 2.243-5 5v6c0 2.757 2.243 5 5 5zm-3-11c0-1.654 1.346-3 3-3h14c1.654 0 3 1.346 3 3v6c0 1.654-1.346 3-3 3h-5v4.586c0 .338-.469.532-.707.293l-4.879-4.879h-3.414c-1.654 0-3-1.346-3-3z"/><path d="m39.707 5.707-1.414-1.414-7.293 7.293-2.293-2.293-1.414 1.414 3.707 3.707z"/><path d="m9 16h2v2h-2z"/><path d="m9 20h2v2h-2z"/><path d="m9 24h2v2h-2z"/><path d="m41 53h2v2h-2z"/><path d="m45 53h2v2h-2z"/><path d="m49 53h2v2h-2z"/></svg>