<svg id="Layer_1" height="512" viewBox="0 0 128 128" width="512" xmlns="http://www.w3.org/2000/svg" data-name="Layer 1"><path d="m79.636 82.306-33.942-33.942a14 14 0 0 1 13.75 3.561l16.631 16.631a14 14 0 0 1 3.561 13.75z" fill="#fb0025"/><path d="m45.694 48.364-22.838 22.836a9.971 9.971 0 0 0 0 14.1l19.84 19.84a9.971 9.971 0 0 0 14.1 0l22.839-22.834zm-2.8 47.7-10.962-10.957a7.751 7.751 0 0 1 10.961 10.961z" fill="#0087ff"/><path d="m78.228 49.772 7.071 2.357 9.887-9.887-2.357-7.071 7.071 2.357 6.603-6.603 1.561-10.989-10.989 1.561-34.03 34.03 9.428 9.428 8.112-8.112z" fill="#84c8ff"/><path d="m57.849 60.519a9.419 9.419 0 1 0 9.632 9.632z" fill="#fff4ca"/><g fill="#002390"><path d="m64.171 95.3-.605.6a1.75 1.75 0 1 0 2.475 2.475l.605-.6a1.75 1.75 0 0 0 -2.475-2.475z"/><path d="m65.519 55.527 14.063-14.062a1.75 1.75 0 0 0 -2.475-2.475l-14.063 14.062-2.363-2.364a15.754 15.754 0 0 0 -15.468-4.006.319.319 0 0 0 -.08.046 1.657 1.657 0 0 0 -.676.4l-22.838 22.838a11.72 11.72 0 0 0 0 16.575l19.84 19.84a11.72 11.72 0 0 0 16.575 0l3.924-3.923a1.75 1.75 0 1 0 -2.475-2.475l-3.923 3.923a8.22 8.22 0 0 1 -11.626 0l-19.84-19.84a8.22 8.22 0 0 1 0-11.626l21.6-21.6 19.987 19.986a7.666 7.666 0 1 1 -13.031-6.326 1.75 1.75 0 0 0 -2.474-2.475 11.169 11.169 0 1 0 18.391 11.687l8.594 8.594-8.678 8.677a1.75 1.75 0 0 0 2.475 2.475l9.915-9.915a1.733 1.733 0 0 0 .43-.731c0-.007.013-.018.015-.025a15.757 15.757 0 0 0 -4.006-15.468zm-16.138-5.951a12.148 12.148 0 0 1 8.825 3.587l16.631 16.631a12.251 12.251 0 0 1 3.587 8.825z"/><path d="m30.7 83.87a1.751 1.751 0 0 0 0 2.475l10.96 10.96a1.752 1.752 0 0 0 2.475 0 9.5 9.5 0 0 0 -13.435-13.435zm12.014 9.538-8.117-8.117a6 6 0 0 1 8.117 8.117z"/><path d="m82.327 37.994a1.744 1.744 0 0 0 1.236-.512l.709-.708a1.749 1.749 0 1 0 -2.472-2.474l-.709.708a1.75 1.75 0 0 0 1.236 2.988z"/><path d="m109.3 18.7a1.752 1.752 0 0 0 -1.484-.5l-10.99 1.562a1.733 1.733 0 0 0 -.991.5l-9.663 9.664a1.749 1.749 0 0 0 2.476 2.474l9.25-9.251 8.102-1.149-1.147 8.1-5.425 5.423-6.045-2.014a1.751 1.751 0 0 0 -2.214 2.214l2.016 6.045-8.359 8.357-6.044-2.016a1.751 1.751 0 0 0 -2.214 2.214l2.015 6.045-2.911 2.911a1.75 1.75 0 1 0 2.474 2.475l3.676-3.676a1.749 1.749 0 0 0 .423-1.791l-1.245-3.748 3.75 1.25a1.746 1.746 0 0 0 1.791-.423l9.888-9.887a1.749 1.749 0 0 0 .423-1.791l-1.252-3.75 3.751 1.25a1.748 1.748 0 0 0 1.791-.423l6.6-6.6a1.733 1.733 0 0 0 .5-.991l1.562-10.99a1.752 1.752 0 0 0 -.504-1.484z"/></g></svg>