<?xml version="1.0" encoding="iso-8859-1"?>
<!-- Generator: Adobe Illustrator 19.0.0, SVG Export Plug-In . SVG Version: 6.00 Build 0)  -->
<svg version="1.1" id="Layer_1" xmlns="http://www.w3.org/2000/svg" xmlns:xlink="http://www.w3.org/1999/xlink" x="0px" y="0px"
	 viewBox="0 0 295.239 295.239" style="enable-background:new 0 0 295.239 295.239;" xml:space="preserve">
<g>
	<g>
		<g>
			<path d="M107.071,19.048L80.952,55.62v11.048h71.429V19.048h0H107.071z M142.858,57.144L142.858,57.144H91.567l20.41-28.571
				h30.881V57.144z"/>
			<path d="M157.142,19.048v47.619h71.429V55.62l-26.119-36.571H157.142z M166.667,57.142V28.571h30.881l20.41,28.571H166.667z"/>
			<rect x="138.095" y="71.43" width="14.286" height="9.524"/>
			<path d="M66.667,147.62c7.876,0,14.286-6.41,14.286-14.286s-6.41-14.286-14.286-14.286c-7.876,0-14.286,6.41-14.286,14.286
				C52.381,141.211,58.791,147.62,66.667,147.62z M66.667,128.571c2.629,0,4.762,2.133,4.762,4.762c0,2.629-2.134,4.762-4.762,4.762
				c-2.629,0-4.762-2.133-4.762-4.762C61.905,130.704,64.038,128.571,66.667,128.571z"/>
			<path d="M280.953,138.095c11.805,0,14.286-7.771,14.286-14.286V80.953c0-11.805-9.629-22.271-17.895-23.667l-19.033-4.762
				c-4.79-1.214-7.562-3.086-11.581-7.671l-23.929-33.5C216.657,3.501,209.624,0.001,200,0.001h-90.476
				c-9.629,0-16.667,3.5-22.919,11.519L63.076,44.495c-4.276,4.924-7.538,7.162-11.471,7.952l-28.762,4.795
				C9.181,60.087,0,71.529,0,85.714v33.333c0,10.324,8.724,19.048,19.048,19.048h14.667c1.067,7.41,4.557,14.043,9.671,19.048H0
				v38.095h84.995l46.429,14.286l-47.11,14.495l0.162,9.152l44.824,12.067l-44.219,11.905H0v38.095h295.238v-38.095h-85.081
				l-44.219-11.905l44.824-12.067l0.162-9.152l-47.11-14.495l46.429-14.286h84.995v-38.095h-43.386
				c5.119-5.005,8.605-11.638,9.672-19.048H280.953z M42.857,133.334c0-13.129,10.681-23.81,23.81-23.81
				c13.129,0,23.81,10.681,23.81,23.81c0,13.129-10.681,23.81-23.81,23.81C53.538,157.144,42.857,146.462,42.857,133.334z
				 M99.619,138.095h96c1.067,7.41,4.557,14.043,9.671,19.048H89.948C95.067,152.139,98.552,145.506,99.619,138.095z
				 M285.714,266.666v19.048H9.524v-19.048H285.714z M173.519,257.143h-51.8l25.9-6.971L173.519,257.143z M192.343,228.267
				l-44.724,12.038l-44.724-12.043l44.724-13.757L192.343,228.267z M147.619,204.538l-30.233-9.3h60.467L147.619,204.538z
				 M285.714,166.667v19.048H9.524v-19.048H285.714z M228.572,157.144c-13.129,0-23.81-10.681-23.81-23.81
				c0-13.129,10.681-23.81,23.81-23.81c13.129,0,23.81,10.681,23.81,23.81C252.382,146.462,241.701,157.144,228.572,157.144z
				 M228.571,100.001c-16.758,0-30.629,12.448-32.952,28.571h-96c-2.324-16.123-16.195-28.571-32.952-28.571
				s-30.629,12.448-32.952,28.571H19.048c-5.072,0-9.524-4.452-9.524-9.523v-23.81h9.524v9.524h9.524v-9.524
				c0-6.143-3.381-9.524-9.524-9.524H9.524c0-11.781,7.881-17.614,15.067-19.114l28.724-4.79
				c6.219-1.248,11.281-4.557,17.224-11.424l23.69-33.171c4.381-5.605,8.529-7.69,15.295-7.69H200c6.762,0,10.91,2.086,15.176,7.529
				l24.09,33.69c4.667,5.371,9.095,9.086,16.729,11.014l19.4,4.838c4.057,0.7,10.319,7.171,10.319,14.357v42.857
				c0,4.09-0.671,4.762-4.762,4.762h-19.429C259.2,112.449,245.329,100.001,228.571,100.001z"/>
			<path d="M228.571,119.048c-7.876,0-14.286,6.41-14.286,14.286c0,7.876,6.41,14.286,14.286,14.286
				c7.876,0,14.286-6.41,14.286-14.286S236.448,119.048,228.571,119.048z M228.571,138.095c-2.629,0-4.762-2.133-4.762-4.762
				c0-2.629,2.133-4.762,4.762-4.762c2.629,0,4.762,2.133,4.762,4.762C233.333,135.962,231.2,138.095,228.571,138.095z"/>
			<rect x="38.095" y="204.762" width="9.524" height="23.81"/>
			<rect x="19.048" y="214.287" width="9.524" height="33.333"/>
			<rect x="261.905" y="204.762" width="9.524" height="19.048"/>
			<rect x="242.857" y="204.762" width="9.524" height="42.857"/>
			<rect x="176.19" y="109.524" width="9.524" height="9.524"/>
			<rect x="157.143" y="109.524" width="9.524" height="9.524"/>
			<rect x="266.667" y="109.524" width="9.524" height="9.524"/>
			<rect x="19.048" y="271.429" width="9.524" height="9.524"/>
			<rect x="38.095" y="271.429" width="9.524" height="9.524"/>
		</g>
	</g>
</g>
<g>
</g>
<g>
</g>
<g>
</g>
<g>
</g>
<g>
</g>
<g>
</g>
<g>
</g>
<g>
</g>
<g>
</g>
<g>
</g>
<g>
</g>
<g>
</g>
<g>
</g>
<g>
</g>
<g>
</g>
</svg>
