<svg id="Layer_1" height="512" viewBox="0 0 128 128" width="512" xmlns="http://www.w3.org/2000/svg" data-name="Layer 1"><rect fill="#a07852" height="27.652" rx="2.984" width="15.906" x="26.917" y="81.679"/><path d="m44.574 93.653v-7.079-1.91a4.739 4.739 0 0 0 -4.735-4.734h-9.939a4.739 4.739 0 0 0 -4.734 4.734v1.909 14.159 5.613a4.74 4.74 0 0 0 4.734 4.734h9.938a4.74 4.74 0 0 0 4.735-4.734v-5.613-7.08zm-4.735 13.928h-9.939a1.236 1.236 0 0 1 -1.234-1.234v-2.247l1.331.925a1.75 1.75 0 0 0 2-2.875l-3.328-2.312v-2.813l1.331.924a1.75 1.75 0 0 0 2-2.875l-3.328-2.311v-2.818l1.328.924a1.75 1.75 0 0 0 2-2.875l-3.328-2.311v-1.019a1.235 1.235 0 0 1 1.228-1.234h9.938a1.236 1.236 0 0 1 1.235 1.234v1.019l-3.328 2.311a1.75 1.75 0 1 0 2 2.875l1.331-.924v2.818l-3.328 2.311a1.75 1.75 0 1 0 2 2.875l1.331-.924v2.817l-3.328 2.312a1.75 1.75 0 0 0 2 2.875l1.331-.925v2.243a1.236 1.236 0 0 1 -1.243 1.234z" fill="#5a422c"/><rect fill="#a07852" height="27.652" rx="2.984" width="15.906" x="85.176" y="81.679"/><path d="m102.833 93.653v-7.079-1.91a4.739 4.739 0 0 0 -4.733-4.734h-9.939a4.739 4.739 0 0 0 -4.735 4.734v1.909 14.159 5.613a4.74 4.74 0 0 0 4.735 4.734h9.939a4.74 4.74 0 0 0 4.734-4.734v-5.613-7.08zm-4.733 13.928h-9.939a1.236 1.236 0 0 1 -1.235-1.234v-2.247l1.331.925a1.75 1.75 0 0 0 2-2.875l-3.328-2.312v-2.813l1.331.924a1.75 1.75 0 0 0 2-2.875l-3.328-2.311v-2.818l1.331.924a1.75 1.75 0 0 0 2-2.875l-3.328-2.311v-1.019a1.236 1.236 0 0 1 1.235-1.234h9.93a1.235 1.235 0 0 1 1.234 1.234v1.019l-3.328 2.311a1.75 1.75 0 1 0 2 2.875l1.331-.924v2.818l-3.328 2.311a1.75 1.75 0 1 0 2 2.875l1.331-.924v2.817l-3.328 2.312a1.75 1.75 0 0 0 2 2.875l1.331-.925v2.243a1.236 1.236 0 0 1 -1.243 1.234z" fill="#5a422c"/><rect fill="#a07852" height="27.652" rx="2.984" width="15.906" x="26.917" y="18.671"/><path d="m44.574 30.645v-8.99a4.739 4.739 0 0 0 -4.735-4.734h-9.939a4.739 4.739 0 0 0 -4.734 4.734v8.99 7.078 5.613a4.739 4.739 0 0 0 4.734 4.736h9.938a4.739 4.739 0 0 0 4.735-4.734v-5.613-7.079zm-4.735 13.927h-9.939a1.235 1.235 0 0 1 -1.234-1.234v-2.238l1.334.92a1.75 1.75 0 0 0 2-2.875l-3.328-2.312v-2.817l1.328.924a1.75 1.75 0 1 0 2-2.875l-3.328-2.311v-2.818l1.328.924a1.75 1.75 0 1 0 2-2.875l-3.328-2.311v-1.019a1.236 1.236 0 0 1 1.228-1.234h9.938a1.236 1.236 0 0 1 1.235 1.234v1.019l-3.328 2.311a1.75 1.75 0 1 0 2 2.875l1.331-.924v2.818l-3.328 2.311a1.75 1.75 0 1 0 2 2.875l1.331-.924v2.817l-3.328 2.312a1.75 1.75 0 1 0 2 2.875l1.331-.924v2.242a1.236 1.236 0 0 1 -1.243 1.234z" fill="#5a422c"/><rect fill="#a07852" height="27.652" rx="2.984" width="15.906" x="85.176" y="18.671"/><path d="m102.833 30.645v-8.99a4.739 4.739 0 0 0 -4.733-4.734h-9.939a4.739 4.739 0 0 0 -4.735 4.734v8.99 7.078 5.613a4.739 4.739 0 0 0 4.735 4.734h9.939a4.739 4.739 0 0 0 4.734-4.734v-5.611-7.079zm-4.733 13.927h-9.939a1.236 1.236 0 0 1 -1.235-1.234v-2.238l1.331.924a1.75 1.75 0 0 0 2-2.875l-3.328-2.312v-2.821l1.331.924a1.75 1.75 0 0 0 2-2.875l-3.328-2.311v-2.818l1.331.924a1.75 1.75 0 0 0 2-2.875l-3.328-2.311v-1.019a1.236 1.236 0 0 1 1.235-1.234h9.93a1.236 1.236 0 0 1 1.234 1.234v1.019l-3.328 2.311a1.75 1.75 0 1 0 2 2.875l1.331-.924v2.818l-3.328 2.311a1.75 1.75 0 1 0 2 2.875l1.331-.924v2.817l-3.328 2.312a1.75 1.75 0 1 0 2 2.875l1.331-.924v2.242a1.235 1.235 0 0 1 -1.243 1.234z" fill="#5a422c"/><path d="m57.514 27.706h12.972v8.271h-12.972z" fill="#ffda2d"/><path d="m57.514 92.023h12.972v8.271h-12.972z" fill="#ffda2d"/><path d="m71.556 64a7.555 7.555 0 0 0 -4.642-6.971v-21.052h-5.828v21.052a7.555 7.555 0 0 0 0 13.942v19.258h5.828v-19.258a7.555 7.555 0 0 0 4.642-6.971z" fill="#fb0025"/><g fill="#002390"><path d="m44.574 33.591h11.19v2.386a1.751 1.751 0 0 0 1.75 1.75h1.821v1.856a1.75 1.75 0 0 0 3.5 0v-1.856h2.33v19.3a1.75 1.75 0 0 0 1.074 1.615 5.806 5.806 0 0 1 0 10.714 1.75 1.75 0 0 0 -1.074 1.615v14.2a1.75 1.75 0 0 0 3.5 0v-13.117a9.309 9.309 0 0 0 0-16.108v-18.219h1.821a1.751 1.751 0 0 0 1.75-1.75v-8.271a1.751 1.751 0 0 0 -1.75-1.75h-12.972a1.751 1.751 0 0 0 -1.75 1.75v2.385h-11.19v-8.436a4.739 4.739 0 0 0 -4.735-4.734h-9.939a4.739 4.739 0 0 0 -4.734 4.734v8.99 7.078 5.613a4.739 4.739 0 0 0 4.734 4.736h9.938a4.739 4.739 0 0 0 4.735-4.734v-5.613zm14.69-4.135h9.472v4.771h-9.472zm-19.425 15.116h-9.939a1.235 1.235 0 0 1 -1.234-1.234v-2.238l1.334.92a1.75 1.75 0 0 0 2-2.875l-3.328-2.312v-2.817l1.328.924a1.75 1.75 0 1 0 2-2.875l-3.328-2.311v-2.818l1.328.924a1.75 1.75 0 1 0 2-2.875l-3.328-2.311v-1.019a1.236 1.236 0 0 1 1.228-1.234h9.938a1.236 1.236 0 0 1 1.235 1.234v1.019l-3.328 2.311a1.75 1.75 0 1 0 2 2.875l1.331-.924v2.818l-3.328 2.311a1.75 1.75 0 1 0 2 2.875l1.331-.924v2.817l-3.328 2.312a1.75 1.75 0 1 0 2 2.875l1.331-.924v2.242a1.236 1.236 0 0 1 -1.243 1.234z"/><path d="m102.833 30.645v-8.99a4.739 4.739 0 0 0 -4.733-4.734h-9.939a4.739 4.739 0 0 0 -4.735 4.734v8.436h-6.676a1.75 1.75 0 0 0 0 3.5h6.676v4.133 5.613a4.739 4.739 0 0 0 4.735 4.734h9.939a4.739 4.739 0 0 0 4.734-4.734v-5.612-7.079zm-4.733 13.927h-9.939a1.236 1.236 0 0 1 -1.235-1.234v-2.238l1.331.924a1.75 1.75 0 0 0 2-2.875l-3.328-2.312v-2.821l1.331.924a1.75 1.75 0 0 0 2-2.875l-3.328-2.311v-2.818l1.331.924a1.75 1.75 0 0 0 2-2.875l-3.328-2.311v-1.019a1.236 1.236 0 0 1 1.235-1.234h9.93a1.236 1.236 0 0 1 1.234 1.234v1.019l-3.328 2.311a1.75 1.75 0 1 0 2 2.875l1.331-.924v2.818l-3.328 2.311a1.75 1.75 0 1 0 2 2.875l1.331-.924v2.817l-3.328 2.312a1.75 1.75 0 1 0 2 2.875l1.331-.924v2.242a1.235 1.235 0 0 1 -1.243 1.234z"/><path d="m44.574 86.573v-1.909a4.739 4.739 0 0 0 -4.735-4.734h-9.939a4.739 4.739 0 0 0 -4.734 4.734v16.069 5.613a4.739 4.739 0 0 0 4.734 4.734h9.938a4.739 4.739 0 0 0 4.735-4.734v-5.613-14.16zm-4.735 21.008h-9.939a1.236 1.236 0 0 1 -1.234-1.234v-2.247l1.331.925a1.75 1.75 0 0 0 2-2.875l-3.328-2.312v-2.813l1.331.924a1.75 1.75 0 0 0 2-2.875l-3.328-2.311v-2.818l1.328.924a1.75 1.75 0 0 0 2-2.875l-3.328-2.311v-1.019a1.235 1.235 0 0 1 1.228-1.234h9.938a1.236 1.236 0 0 1 1.235 1.234v1.019l-3.328 2.311a1.75 1.75 0 1 0 2 2.875l1.331-.924v2.818l-3.328 2.311a1.75 1.75 0 1 0 2 2.875l1.331-.924v2.817l-3.328 2.312a1.75 1.75 0 0 0 2 2.875l1.331-.925v2.243a1.236 1.236 0 0 1 -1.243 1.234z"/><path d="m102.833 86.573v-1.909a4.739 4.739 0 0 0 -4.733-4.734h-9.939a4.739 4.739 0 0 0 -4.735 4.734v9.745h-11.19v-2.386a1.751 1.751 0 0 0 -1.75-1.75h-7.655c0-.015 0-.029 0-.044v-19.257a1.75 1.75 0 0 0 -1.074-1.615 5.806 5.806 0 0 1 0-10.714 1.75 1.75 0 0 0 1.074-1.615v-5.778a1.75 1.75 0 0 0 -3.5 0v4.7a9.309 9.309 0 0 0 0 16.108v18.171c0 .015.005.029.005.044h-1.822a1.751 1.751 0 0 0 -1.75 1.75v2.386h-6.264a1.75 1.75 0 1 0 0 3.5h6.264v2.385a1.751 1.751 0 0 0 1.75 1.75h12.972a1.751 1.751 0 0 0 1.75-1.75v-2.385h11.19v2.824 5.613a4.739 4.739 0 0 0 4.735 4.734h9.939a4.739 4.739 0 0 0 4.734-4.734v-5.613-14.16zm-34.1 11.971h-9.469v-4.771h9.472zm29.367 9.037h-9.939a1.236 1.236 0 0 1 -1.235-1.234v-2.247l1.331.925a1.75 1.75 0 0 0 2-2.875l-3.328-2.312v-2.813l1.331.924a1.75 1.75 0 0 0 2-2.875l-3.328-2.311v-2.818l1.331.924a1.75 1.75 0 0 0 2-2.875l-3.328-2.311v-1.019a1.236 1.236 0 0 1 1.235-1.234h9.93a1.235 1.235 0 0 1 1.234 1.234v1.019l-3.328 2.311a1.75 1.75 0 1 0 2 2.875l1.331-.924v2.818l-3.328 2.311a1.75 1.75 0 1 0 2 2.875l1.331-.924v2.817l-3.328 2.312a1.75 1.75 0 0 0 2 2.875l1.331-.925v2.243a1.236 1.236 0 0 1 -1.243 1.234z"/><path d="m61.085 43.5a1.751 1.751 0 0 0 -1.75 1.75v.458a1.75 1.75 0 0 0 3.5 0v-.458a1.75 1.75 0 0 0 -1.75-1.75z"/></g></svg>