<svg id="Layer_1" height="512" viewBox="0 0 128 128" width="512" xmlns="http://www.w3.org/2000/svg" data-name="Layer 1"><path d="m18.671 50.502h16.329v6.5h-16.329z" fill="#0087ff"/><path d="m103.167 75.502h6.163v6.5h-6.163z" fill="#0087ff"/><path d="m35 46.439h10.25v14.625h-10.25z" fill="#5a422c"/><path d="m45.25 39.748h11.75a0 0 0 0 1 0 0v48.5a0 0 0 0 1 0 0 11.75 11.75 0 0 1 -11.75-11.748v-36.752a0 0 0 0 1 0 0z" fill="#ffda2d"/><path d="m68.333 39.748h11.75v48.504h-11.75z" fill="#ffda2d"/><path d="m57 71.002h11.333v17.25h-11.333z" fill="#5a422c"/><path d="m91.417 39.748h11.75a0 0 0 0 1 0 0v48.5a0 0 0 0 1 0 0 11.75 11.75 0 0 1 -11.75-11.748v-36.752a0 0 0 0 1 0 0z" fill="#ffda2d" transform="matrix(-1 0 0 -1 194.583 128)"/><path d="m80.083 39.748h11.333v17.25h-11.333z" fill="#5a422c" transform="matrix(-1 0 0 -1 171.5 96.746)"/><g fill="#002390"><path d="m109.329 73.752h-4.412v-3.835a1.75 1.75 0 0 0 -3.5 0v16.583h-8.25v-44.849a10.017 10.017 0 0 1 8.25 9.847v3.585a1.75 1.75 0 0 0 3.5 0v-3.583a13.515 13.515 0 0 0 -13.5-13.5h-23.084a1.75 1.75 0 0 0 -1.75 1.75v46.75h-7.833v-13.748h3.917a1.75 1.75 0 0 0 0-3.5h-3.917v-10.252a1.75 1.75 0 0 0 -3.5 0v27.349a10.017 10.017 0 0 1 -8.25-9.849v-35h8.25v3.25a1.75 1.75 0 0 0 3.5 0v-5a1.75 1.75 0 0 0 -1.75-1.75h-11.75a1.75 1.75 0 0 0 -1.75 1.75v4.941h-8.5a1.75 1.75 0 0 0 -1.75 1.75v2.313h-14.579a1.75 1.75 0 0 0 -1.75 1.75v6.496a1.75 1.75 0 0 0 1.75 1.75h9.579a1.75 1.75 0 1 0 0-3.5h-7.829v-3h12.829v8.812a1.749 1.749 0 0 0 1.75 1.752h8.5v13.686a13.515 13.515 0 0 0 13.5 13.5h23.083a1.75 1.75 0 0 0 1.75-1.75v-29.5h7.834v29.5a1.75 1.75 0 0 0 1.75 1.75h11.75a1.75 1.75 0 0 0 1.75-1.75v-11h2.662v4.75a1.75 1.75 0 0 0 3.5 0v-6.5a1.75 1.75 0 0 0 -1.75-1.748zm-72.579-14.438v-11.125h6.75v11.125zm41.583 27.186h-8.25v-45h8.25zm3.5-31.254v-13.746h7.834v13.75z"/><path d="m57 49.752a1.75 1.75 0 0 0 -1.75 1.75v.686a1.75 1.75 0 0 0 3.5 0v-.688a1.75 1.75 0 0 0 -1.75-1.748z"/><path d="m103.167 60.25a1.749 1.749 0 0 0 -1.75 1.75v.75a1.75 1.75 0 0 0 3.5 0v-.75a1.749 1.749 0 0 0 -1.75-1.75z"/></g></svg>