<svg id="Layer_1" height="512" viewBox="0 0 128 128" width="512" xmlns="http://www.w3.org/2000/svg" data-name="Layer 1"><path d="m57.982 31.813h17.377v59.022h-17.377z" fill="#0087ff" transform="matrix(.707 .707 -.707 .707 62.89 -29.182)"/><path d="m48.61 85-5.61-5.615a15.013 15.013 0 0 1 -11.117 4.37 12.781 12.781 0 1 0 12.359 12.473 15.269 15.269 0 0 1 4.368-11.228zm-19.948 14.332a3.97 3.97 0 1 1 5.614 0 3.97 3.97 0 0 1 -5.614 0z" fill="#84c8ff"/><path d="m93.9 19.883h4.323a10.893 10.893 0 0 1 10.893 10.893v13.21a0 0 0 0 1 0 0h-26.111a0 0 0 0 1 0 0v-13.21a10.893 10.893 0 0 1 10.895-10.893z" fill="#fb0025" transform="matrix(.707 .707 -.707 .707 50.717 -58.571)"/><g fill="#002390"><path d="m29.9 98.1a1.75 1.75 0 0 0 -2.476 2.474 5.72 5.72 0 1 0 0-8.089 1.75 1.75 0 1 0 2.476 2.47 2.22 2.22 0 0 1 3.14 3.14 2.274 2.274 0 0 1 -3.14.005z"/><path d="m92.811 20.742a1.714 1.714 0 0 0 .4-.047q.363-.085.732-.143a1.75 1.75 0 1 0 -.533-3.459q-.507.078-1.007.2a1.75 1.75 0 0 0 .4 3.453z"/><path d="m107.347 23.7-3.056-3.057a12.54 12.54 0 0 0 -4.738-2.987 1.75 1.75 0 1 0 -1.162 3.3 9.083 9.083 0 0 1 3.425 2.161l3.057 3.057a9.145 9.145 0 0 1 0 12.93l-8.1 8.1-15.991-15.978 8.1-8.1a1.75 1.75 0 0 0 -2.474-2.475l-9.338 9.337a1.749 1.749 0 0 0 0 2.475l14.137 14.137-4.493 4.492-11.922-7.7 2.632-2.632a1.75 1.75 0 1 0 -2.474-2.475l-3.165 3.165-3.238-2.093a1.75 1.75 0 0 0 -1.9 2.94l2.607 1.684-4.032 4.029-3.238-2.092a1.75 1.75 0 1 0 -1.9 2.939l2.607 1.685-4.031 4.031-3.239-2.093a1.75 1.75 0 0 0 -1.9 2.94l2.607 1.68-4.028 4.036-3.238-2.092a1.75 1.75 0 1 0 -1.9 2.939l2.607 1.684-4.035 4.033-3.234-2.094a1.75 1.75 0 1 0 -1.9 2.94l2.6 1.684-4.58 4.581a1.748 1.748 0 0 0 0 2.474l2.006 2.006a13.286 13.286 0 0 1 -8.493 2.716 14.42 14.42 0 0 0 -11.916 5.568 14.53 14.53 0 0 0 10.638 23.458c.27.016.538.023.807.023a14.554 14.554 0 0 0 10.28-4.256 14.392 14.392 0 0 0 4.247-10.613 14.365 14.365 0 0 1 .448-3.938 1.749 1.749 0 1 0 -3.387-.877 17.822 17.822 0 0 0 -.56 4.9 10.925 10.925 0 0 1 -3.222 8.054 11.079 11.079 0 0 1 -8.418 3.214 11.028 11.028 0 0 1 .969-22.034 16.852 16.852 0 0 0 11.108-3.713l7.78 7.78a1.749 1.749 0 0 0 2.475 0l7.754-7.754 3.239 2.092a1.75 1.75 0 1 0 1.9-2.939l-2.605-1.685 4.03-4.032 3.239 2.093a1.75 1.75 0 0 0 1.9-2.94l-2.606-1.684 4.031-4.031 3.236 2.092a1.75 1.75 0 1 0 1.9-2.939l-17.534-11.33 4.034-4.032 11.922 7.7-1.328 1.328a1.75 1.75 0 1 0 2.475 2.474l1.86-1.86 3.238 2.093a1.75 1.75 0 0 0 1.9-2.94l-2.609-1.679 4.032-4.031 3.238 2.092a1.75 1.75 0 1 0 1.9-2.939l-2.607-1.684 3.961-3.961 1.849 1.85a1.749 1.749 0 0 0 2.475 0l9.341-9.341a12.643 12.643 0 0 0 0-17.88zm-46.884 53.644-3.763-2.432a1.75 1.75 0 0 0 -1.9 2.94l3.133 2.023-5.986 5.985-9.813-9.812 10.438-10.438 11.923 7.7zm10.594-10.594-4.031 4.032-11.926-7.703 4.032-4.032zm9.095-9.094-11.923-7.7 4.032-4.031 11.922 7.7z"/><path d="m52.427 72.152-.76-.491a1.751 1.751 0 0 0 -1.9 2.94l.759.491a1.751 1.751 0 0 0 1.9-2.94z"/></g></svg>