<svg id="Layer_1" height="512" viewBox="0 0 128 128" width="512" xmlns="http://www.w3.org/2000/svg" data-name="Layer 1"><path d="m52.783 59.474h54.25v29h-54.25z" fill="#0087ff" transform="matrix(.707 -.707 .707 .707 -28.903 78.17)"/><path d="m55.828 78.278h5.741v33.811h-5.741z" fill="#ffda2d" transform="matrix(.707 -.707 .707 .707 -50.113 69.385)"/><path d="m93.118 44.877h5.579v5.579h-5.579z" fill="#5a422c" transform="matrix(.707 -.707 .707 .707 -5.615 81.778)"/><path d="m45.426 96.708-7.465-7.465a9.8 9.8 0 0 0 -13.863 0l-5.44 5.44 4.242 4.243 4.376-4.376a5.307 5.307 0 0 1 7.506 0l7.465 7.465a9.8 9.8 0 0 0 13.862 0l2.68-2.68-4.243-4.243-1.615 1.616a5.307 5.307 0 0 1 -7.505 0z" fill="#5a422c"/><path d="m81.234 93.154-6.275-6.275a5.626 5.626 0 0 1 0-7.956l9.9-9.9a5.625 5.625 0 0 0 0-7.955l-6.275-6.275 10.252-10.253 20.506 20.507z" fill="#84c8ff"/><path d="m99.37 30.147c-.126 0-.245.027-.369.037a8.972 8.972 0 0 0 -17-5.712 8.4 8.4 0 0 0 -4.789-1.491 8.493 8.493 0 0 0 -1.966.239 6.905 6.905 0 1 0 -11.485 7.124 8.972 8.972 0 1 0 12.185 9.44 8.365 8.365 0 0 0 9.023-4.992 8.943 8.943 0 0 0 9.8.69 4.658 4.658 0 1 0 4.6-5.335z" fill="#fff4ca"/><g fill="#002390"><path d="m110.579 63.809-16.142-16.142 1.47-1.47 2.708 2.703a1.75 1.75 0 0 0 2.475-2.474l-3.945-3.946a1.751 1.751 0 0 0 -2.475 0l-2.708 2.708-1.889-1.888a1.75 1.75 0 0 0 -2.474 0l-10.252 10.255-12.521 12.521a1.749 1.749 0 0 0 2.474 2.474l11.283-11.282 5.038 5.038a3.878 3.878 0 0 1 0 5.481l-9.9 9.9a7.384 7.384 0 0 0 0 10.43l1.642 1.643a1.75 1.75 0 0 0 2.475-2.475l-1.638-1.643a3.883 3.883 0 0 1 0-5.482l9.9-9.9a7.375 7.375 0 0 0 0-10.43l-5.038-5.038 7.779-7.778 18.031 18.03-35.891 35.889-18.031-18.033 4.559-4.559a1.75 1.75 0 1 0 -2.475-2.474l-4.559 4.558-.463-.463a1.749 1.749 0 0 0 -2.475 0l-4.059 4.059a1.749 1.749 0 0 0 0 2.475l8.595 8.595-.378.378a3.564 3.564 0 0 1 -5.032 0l-7.463-7.463a11.551 11.551 0 0 0 -16.337 0l-5.44 5.44a1.748 1.748 0 0 0 0 2.474l4.243 4.243a1.748 1.748 0 0 0 2.474 0l4.376-4.375a3.562 3.562 0 0 1 5.031 0l5.739 5.737a1.749 1.749 0 1 0 2.474-2.474l-5.74-5.738a7.065 7.065 0 0 0 -9.98 0l-3.14 3.138-1.768-1.768 4.2-4.2a8.054 8.054 0 0 1 11.388 0l7.464 7.465a7.066 7.066 0 0 0 9.981 0l.378-.378 1.768 1.768-1.443 1.442a7.963 7.963 0 0 1 -2.949 1.879 1.75 1.75 0 0 0 1.19 3.292 11.444 11.444 0 0 0 4.234-2.7l1.443-1.442 8.6 8.595a1.752 1.752 0 0 0 2.475 0l4.059-4.06a1.748 1.748 0 0 0 0-2.474l-.463-.464 37.123-37.123a1.749 1.749 0 0 0 -.001-2.474zm-41.956 42.883-21.433-21.432 1.584-1.585 21.433 21.433z"/><path d="m60.576 70.326-.75.75a1.749 1.749 0 1 0 2.474 2.474l.75-.75a1.749 1.749 0 1 0 -2.474-2.474z"/><path d="m46.48 102.672c-.191-.068-.381-.143-.568-.226a1.75 1.75 0 0 0 -1.422 3.2c.27.12.544.228.82.326a1.75 1.75 0 0 0 1.17-3.3z"/><path d="m82.229 40.322a10.292 10.292 0 0 0 3.371-3.081 10.782 10.782 0 0 0 8.133.6 6.408 6.408 0 1 0 7.341-9.212c.03-.326.045-.653.045-.979a10.722 10.722 0 0 0 -20.752-3.8 1.75 1.75 0 0 0 3.273 1.24 7.221 7.221 0 0 1 13.681 4.6 1.75 1.75 0 0 0 1.817 2.239 1.894 1.894 0 0 0 .231-.032 2.917 2.917 0 1 1 -2.869 3.334 1.75 1.75 0 0 0 -2.586-1.276 7.231 7.231 0 0 1 -3.523.92 7.158 7.158 0 0 1 -4.36-1.475 1.751 1.751 0 0 0 -2.664.7 6.765 6.765 0 0 1 -2.862 3.18 1.75 1.75 0 1 0 1.724 3.046z"/><path d="m67.046 49.417a10.728 10.728 0 0 0 10.64-9.422 1.75 1.75 0 1 0 -3.475-.423 7.222 7.222 0 1 1 -9.806-7.6 1.75 1.75 0 0 0 .626-2.836 5.154 5.154 0 1 1 8.569-5.317 1.75 1.75 0 1 0 3.289-1.2 8.656 8.656 0 1 0 -15.732 7.1 10.725 10.725 0 0 0 5.885 19.691z"/></g></svg>