<svg id="Layer_1" height="512" viewBox="0 0 128 128" width="512" xmlns="http://www.w3.org/2000/svg" data-name="Layer 1"><path d="m98.015 18.671h-68.03a11.313 11.313 0 0 0 -11.314 11.314v68.03a11.313 11.313 0 0 0 11.314 11.314h68.03a11.313 11.313 0 0 0 11.314-11.314v-68.03a11.313 11.313 0 0 0 -11.314-11.314zm-69.181 84.129a3.25 3.25 0 1 1 3.25-3.25 3.251 3.251 0 0 1 -3.25 3.25zm0-71.09a3.25 3.25 0 1 1 3.25-3.25 3.25 3.25 0 0 1 -3.25 3.245zm70.332 71.09a3.25 3.25 0 1 1 3.25-3.25 3.251 3.251 0 0 1 -3.25 3.25zm0-71.09a3.25 3.25 0 1 1 3.25-3.25 3.25 3.25 0 0 1 -3.25 3.245z" fill="#0087ff"/><circle cx="64" cy="64" fill="#84c8ff" r="35.166"/><path d="m64 55.813v-19.359s-5.417 0-8.187 3.443c-3.564 4.43 4.093 5.528 4.093 17.019z" fill="#fb0025"/><path d="m69.789 58.211 13.689-13.689s-3.831-3.83-8.224-3.354c-5.653.612-1.014 6.8-9.14 14.928z" fill="#fb0025"/><path d="m72.187 64h19.359s0-5.417-3.443-8.187c-4.43-3.564-5.528 4.093-17.019 4.093z" fill="#fb0025"/><path d="m69.789 69.789 13.689 13.689s3.83-3.831 3.354-8.224c-.612-5.653-6.8-1.014-14.928-9.14z" fill="#fb0025"/><path d="m64 72.187v19.359s5.417 0 8.187-3.443c3.564-4.43-4.093-5.528-4.093-17.019z" fill="#fb0025"/><path d="m58.211 69.789-13.689 13.689s3.831 3.83 8.224 3.354c5.653-.612 1.014-6.8 9.14-14.928z" fill="#fb0025"/><path d="m55.813 64h-19.359s0 5.417 3.443 8.187c4.43 3.564 5.528-4.093 17.019-4.093z" fill="#fb0025"/><path d="m58.211 58.211-13.689-13.689s-3.83 3.831-3.354 8.224c.612 5.653 6.8 1.014 14.928 9.14z" fill="#fb0025"/><circle cx="64" cy="64" fill="#ffda2d" r="8.187"/><g fill="#002390"><path d="m98.015 16.921h-40.182a1.75 1.75 0 0 0 0 3.5h40.182a9.574 9.574 0 0 1 9.564 9.564v68.03a9.574 9.574 0 0 1 -9.564 9.564h-68.03a9.574 9.574 0 0 1 -9.564-9.564v-68.03a9.574 9.574 0 0 1 9.564-9.564h13.142a1.75 1.75 0 0 0 0-3.5h-13.142a13.078 13.078 0 0 0 -13.064 13.064v68.03a13.078 13.078 0 0 0 13.064 13.064h68.03a13.078 13.078 0 0 0 13.064-13.064v-68.03a13.078 13.078 0 0 0 -13.064-13.064z"/><path d="m49.669 20.421h.748a1.75 1.75 0 0 0 0-3.5h-.748a1.75 1.75 0 0 0 0 3.5z"/><path d="m28.834 33.456a5 5 0 1 0 -5-5 5.006 5.006 0 0 0 5 5zm0-6.5a1.5 1.5 0 1 1 -1.5 1.5 1.5 1.5 0 0 1 1.5-1.5z"/><path d="m99.166 23.456a5 5 0 1 0 5 5 5.006 5.006 0 0 0 -5-5zm0 6.5a1.5 1.5 0 1 1 1.5-1.5 1.5 1.5 0 0 1 -1.5 1.5z"/><path d="m28.834 101.044a1.75 1.75 0 1 0 0 3.5 5 5 0 1 0 -5-5 1.75 1.75 0 0 0 3.5 0 1.5 1.5 0 1 1 1.5 1.5z"/><path d="m99.166 94.544a5 5 0 1 0 5 5 5.006 5.006 0 0 0 -5-5zm0 6.5a1.5 1.5 0 1 1 1.5-1.5 1.5 1.5 0 0 1 -1.5 1.5z"/><path d="m84.068 90.721c-.342.258-.689.508-1.041.753a1.75 1.75 0 0 0 2 2.875q.584-.405 1.15-.832a1.75 1.75 0 1 0 -2.105-2.8z"/><path d="m64 27.084a36.916 36.916 0 1 0 13.941 71.108 1.75 1.75 0 0 0 -1.322-3.24 33.445 33.445 0 1 1 13.558-10.181 1.75 1.75 0 1 0 2.74 2.178 36.527 36.527 0 0 0 8-22.949 36.959 36.959 0 0 0 -36.917-36.916z"/><path d="m93.3 64c0-.255-.046-6.293-4.1-9.551-3.12-2.51-5.535-.94-7.664.446a16.873 16.873 0 0 1 -9.53 3.242 10 10 0 0 0 -2.957-2.682 20.424 20.424 0 0 0 4.337-9.568c.552-2.611.706-2.833 2.057-2.98a8.411 8.411 0 0 1 5.428 1.749l-7.311 7.311a1.749 1.749 0 1 0 2.474 2.474l8.682-8.682a1.748 1.748 0 0 0 0-2.474c-.18-.181-4.486-4.419-9.65-3.857-3.982.431-4.578 3.249-5.105 5.735a16.862 16.862 0 0 1 -4.21 8.768v-17.477a1.751 1.751 0 0 0 -1.751-1.754c-.255 0-6.293.046-9.551 4.1-2.511 3.121-.94 5.534.446 7.664a16.871 16.871 0 0 1 3.222 9.178l-12.358-12.357a1.8 1.8 0 0 0 -2.474 0c-.181.18-4.417 4.483-3.857 9.65.431 3.982 3.249 4.578 5.735 5.1a16.862 16.862 0 0 1 8.768 4.21h-17.477a1.751 1.751 0 0 0 -1.754 1.755c0 .255.046 6.293 4.1 9.551a5.221 5.221 0 0 0 3.316 1.328 8.268 8.268 0 0 0 4.349-1.774 20.239 20.239 0 0 1 4.175-2.23 1.75 1.75 0 0 0 -1.216-3.282 23.509 23.509 0 0 0 -4.868 2.579c-2.236 1.454-2.5 1.5-3.562.652a8.416 8.416 0 0 1 -2.6-5.074h15.832a9.889 9.889 0 0 0 1.626 3.923l-12.567 12.568a1.748 1.748 0 0 0 0 2.474c.169.17 3.965 3.909 8.7 3.908a8.727 8.727 0 0 0 .949-.051c3.982-.431 4.578-3.249 5.1-5.735a16.862 16.862 0 0 1 4.21-8.768v17.477a1.751 1.751 0 0 0 1.756 1.754c.255 0 6.293-.046 9.551-4.1 2.511-3.121.94-5.534-.446-7.664a16.873 16.873 0 0 1 -3.242-9.53 10 10 0 0 0 2.682-2.957 20.424 20.424 0 0 0 9.568 4.337c2.611.552 2.833.706 2.98 2.057a8.415 8.415 0 0 1 -1.749 5.428l-7.732-7.732a1.749 1.749 0 0 0 -2.474 2.474l9.1 9.1a1.748 1.748 0 0 0 2.474 0c.181-.18 4.417-4.483 3.857-9.65-.431-3.982-3.249-4.578-5.735-5.105a16.862 16.862 0 0 1 -8.768-4.21h17.48a1.751 1.751 0 0 0 1.754-1.748zm-29.3 6.438a6.438 6.438 0 1 1 6.438-6.438 6.444 6.444 0 0 1 -6.438 6.438zm-6.824-29.444a8.416 8.416 0 0 1 5.074-2.6v15.832c-.245.044-.485.1-.723.161a20.438 20.438 0 0 0 -3.7-9.831c-1.454-2.236-1.503-2.503-.651-3.562zm-14.269 11.564a8.415 8.415 0 0 1 1.749-5.428l11.2 11.2c-.141.2-.27.412-.4.625a20.424 20.424 0 0 0 -9.568-4.337c-2.612-.555-2.834-.709-2.981-2.06zm11.708 29.555c-.552 2.611-.706 2.833-2.057 2.98a8.415 8.415 0 0 1 -5.428-1.749l11.2-11.2c.2.141.412.27.625.4a20.424 20.424 0 0 0 -4.34 9.569zm15.556 1.331c1.456 2.236 1.5 2.5.653 3.562a8.416 8.416 0 0 1 -5.074 2.6v-15.832c.245-.044.485-.1.723-.161a20.438 20.438 0 0 0 3.698 9.831zm3.6-21.194c-.044-.245-.1-.485-.161-.723a20.438 20.438 0 0 0 9.831-3.7c2.237-1.456 2.5-1.5 3.562-.653a8.416 8.416 0 0 1 2.6 5.074z"/></g></svg>