<svg id="Layer_1" height="512" viewBox="0 0 128 128" width="512" xmlns="http://www.w3.org/2000/svg" data-name="Layer 1"><path d="m97.36 37.746a1.75 1.75 0 0 1 -1.75-1.746v-4.01a4.837 4.837 0 0 1 1.712-3.7l2.887-2.448a1.75 1.75 0 0 1 2.264 2.67l-2.888 2.448a1.342 1.342 0 0 0 -.475 1.026v4.014a1.75 1.75 0 0 1 -1.75 1.746z" fill="#5a422c"/><path d="m26.992 18.671h55.167v42.771h-55.167z" fill="#0087ff"/><path d="m40.76 20.923h27.632v38.267h-27.632z" fill="#84c8ff" transform="matrix(0 1 -1 0 94.632 -14.519)"/><path d="m31.06 61.442h47.031v40.891h-47.031z" fill="#fb0025"/><path d="m31.155 102.333h46.845a7 7 0 0 1 7 7 0 0 0 0 1 0 0h-60.841a0 0 0 0 1 0 0 7 7 0 0 1 6.996-7z" fill="#84c8ff"/><circle cx="54.576" cy="81.888" fill="#ffda2d" r="12.25"/><path d="m58.974 83.388a4.4 4.4 0 0 1 -8.8 0c0-2.43 4.4-7.4 4.4-7.4s4.4 4.97 4.4 7.4z" fill="#fff4ca"/><path d="m90.879 34.688h.609a12.353 12.353 0 0 1 12.353 12.353v5.085a0 0 0 0 1 0 0h-12.962a0 0 0 0 1 0 0v-17.438a0 0 0 0 1 0 0z" fill="#fb0025"/><g fill="#002390"><path d="m73.709 49.417a1.75 1.75 0 0 0 1.75-1.75v-21.427a1.75 1.75 0 0 0 -1.75-1.75h-38.267a1.75 1.75 0 0 0 -1.75 1.75v27.632a1.75 1.75 0 0 0 1.75 1.75h38.267a1.75 1.75 0 0 0 0-3.5h-36.517v-24.132h34.767v19.677a1.75 1.75 0 0 0 1.75 1.75z"/><path d="m42.125 20.421h1.25a1.75 1.75 0 0 0 0-3.5h-1.25a1.75 1.75 0 0 0 0 3.5z"/><path d="m78 100.583h-45.189v-32.833a1.75 1.75 0 0 0 -3.5 0v33.033a8.758 8.758 0 0 0 -6.9 8.546 1.75 1.75 0 0 0 1.75 1.75h60.831a1.75 1.75 0 0 0 1.75-1.75 8.756 8.756 0 0 0 -8.742-8.746zm-51.788 7a5.256 5.256 0 0 1 4.946-3.5h46.842a5.254 5.254 0 0 1 4.945 3.5z"/><path d="m64.574 89.182a1.748 1.748 0 0 0 2.367-.723 14 14 0 1 0 -6.022 5.912 1.75 1.75 0 0 0 -1.587-3.119 10.387 10.387 0 0 1 -4.756 1.136 10.494 10.494 0 1 1 9.275-5.574 1.751 1.751 0 0 0 .723 2.368z"/><path d="m53.265 74.829c-1.135 1.282-4.838 5.689-4.838 8.559a6.149 6.149 0 0 0 12.3 0c0-2.87-3.7-7.277-4.839-8.559a1.808 1.808 0 0 0 -2.623 0zm3.96 8.559a2.649 2.649 0 0 1 -5.3 0c0-.8 1.231-2.8 2.649-4.646 1.426 1.845 2.651 3.847 2.651 4.646z"/><path d="m99.11 35.193v-3.207a1.342 1.342 0 0 1 .475-1.026l2.888-2.448a1.75 1.75 0 0 0 -2.264-2.67l-2.887 2.448a4.837 4.837 0 0 0 -1.712 3.7v1.569a14.072 14.072 0 0 0 -4.122-.617h-.609a1.75 1.75 0 0 0 -1.75 1.75v17.434a1.75 1.75 0 0 0 1.75 1.75h12.962a1.75 1.75 0 0 0 1.75-1.75v-5.085a14.1 14.1 0 0 0 -6.481-11.848zm2.981 15.183h-9.462v-13.876a10.619 10.619 0 0 1 9.462 10.543z"/><path d="m97.36 56.583a1.75 1.75 0 0 0 -1.75 1.75v11.75a1.75 1.75 0 0 0 3.5 0v-11.75a1.75 1.75 0 0 0 -1.75-1.75z"/><path d="m97.36 73.667a1.75 1.75 0 0 0 -1.75 1.75v.916a1.75 1.75 0 0 0 3.5 0v-.916a1.75 1.75 0 0 0 -1.75-1.75z"/><path d="m97.36 80.138a1.75 1.75 0 0 0 -1.75 1.75v5.428a4.434 4.434 0 0 1 -8.868 0 7.181 7.181 0 0 0 -6.9-7.164v-16.96h2.318a1.75 1.75 0 0 0 1.75-1.75v-42.771a1.75 1.75 0 0 0 -1.75-1.75h-31.285a1.75 1.75 0 0 0 0 3.5h29.534v39.271h-51.667v-39.271h6.7a1.75 1.75 0 0 0 0-3.5h-8.45a1.75 1.75 0 0 0 -1.75 1.75v42.771a1.75 1.75 0 0 0 1.75 1.75h49.349v32.975a1.75 1.75 0 0 0 3.5 0v-12.5a3.671 3.671 0 0 1 3.4 3.65 7.934 7.934 0 0 0 15.868 0v-5.429a1.75 1.75 0 0 0 -1.749-1.75z"/></g></svg>