<svg id="Layer_1" height="512" viewBox="0 0 128 128" width="512" xmlns="http://www.w3.org/2000/svg" data-name="Layer 1"><path d="m64 52.029a45.126 45.126 0 0 1 -27.129-9.011 34.147 34.147 0 0 0 -7.171 20.682c.306-.01.612-.023.921-.023a27.3 27.3 0 0 1 26.479 33.932 34.6 34.6 0 0 0 13.81 0 27.3 27.3 0 0 1 26.466-33.937c.309 0 .615.013.921.023a34.153 34.153 0 0 0 -7.168-20.677 45.126 45.126 0 0 1 -27.129 9.011z" fill="#ffda2d"/><path d="m64 18.671a45.329 45.329 0 1 0 45.329 45.329 45.328 45.328 0 0 0 -45.329-45.329zm0 79.634a34.305 34.305 0 1 1 34.305-34.305 34.305 34.305 0 0 1 -34.305 34.305z" fill="#0087ff"/><circle cx="64" cy="65.744" fill="#fb0025" r="7.5"/><path d="m35.19 29 5.935 9.438a34.288 34.288 0 0 1 45.75 0l5.935-9.438a45.333 45.333 0 0 0 -57.62 0z" fill="#84c8ff"/><path d="m92.81 99-5.935-9.438a34.288 34.288 0 0 1 -45.75 0l-5.935 9.438a45.333 45.333 0 0 0 57.62 0z" fill="#84c8ff"/><path d="m64 67.294a9.026 9.026 0 0 0 7.21-3.6 7.493 7.493 0 0 0 -14.42 0 9.026 9.026 0 0 0 7.21 3.6z" fill="#fff4ca"/><g fill="#002390"><path d="m111.079 64a47 47 0 0 0 -16.974-36.163 1.725 1.725 0 0 0 -.363-.315c-.017-.011-.036-.017-.054-.027a46.851 46.851 0 0 0 -29.688-10.574 47.408 47.408 0 0 0 -9.333.925 1.75 1.75 0 1 0 .69 3.431 43.936 43.936 0 0 1 8.643-.856 43.346 43.346 0 0 1 26.48 9l-4.025 6.4a35.945 35.945 0 0 0 -44.91 0l-4.031-6.41a43.828 43.828 0 0 1 5.844-3.8 1.75 1.75 0 0 0 -1.66-3.081 47.058 47.058 0 0 0 -7.8 77.636 1.74 1.74 0 0 0 .362.314c.015.009.031.012.046.02a46.962 46.962 0 0 0 59.392 0c.015-.008.032-.011.046-.02a1.725 1.725 0 0 0 .363-.315 47 47 0 0 0 16.972-36.165zm-14.6-2.055a29.023 29.023 0 0 0 -27.667 34.245 32.5 32.5 0 0 1 -37.33-30.746 25.566 25.566 0 0 1 24.683 25.518 1.75 1.75 0 0 0 3.5 0 29.069 29.069 0 0 0 -28.148-29.017 32.343 32.343 0 0 1 5.749-16.49 46.658 46.658 0 0 0 26.734 8.324 47.106 47.106 0 0 0 22.78-5.869 1.75 1.75 0 1 0 -1.7-3.062 43.612 43.612 0 0 1 -21.08 5.431 43.186 43.186 0 0 1 -24.58-7.589 32.528 32.528 0 0 1 57.063 19.255zm-76.058 2.055a43.527 43.527 0 0 1 14.379-32.328l4.084 6.5a36.268 36.268 0 0 0 -3.292 3.67 1.729 1.729 0 0 0 -.123.133c-.023.031-.037.064-.057.1a35.959 35.959 0 0 0 3.472 47.767l-4.084 6.481a43.476 43.476 0 0 1 -14.379-32.323zm17.1 34.578 4.025-6.4a35.875 35.875 0 0 0 22.454 7.877 36.266 36.266 0 0 0 7.194-.731c.045-.008.09-.006.135-.017.022 0 .041-.016.062-.022a35.782 35.782 0 0 0 15.078-7.085l4.011 6.377a43.451 43.451 0 0 1 -52.96 0zm55.679-2.255-4.069-6.471a36.733 36.733 0 0 0 2.938-3.218 1.749 1.749 0 1 0 -2.722-2.2 32.981 32.981 0 0 1 -3.642 3.83c-.021.019-.042.038-.062.058a32.331 32.331 0 0 1 -13.4 7.167 25.521 25.521 0 0 1 24.263-30.045 32.558 32.558 0 0 1 -1.147 7.33 1.75 1.75 0 0 0 3.371.941 36.045 36.045 0 0 0 -9.615-35.548l4.081-6.49a43.511 43.511 0 0 1 0 64.646z"/><path d="m48.285 23.219a1.754 1.754 0 0 0 .607-.109q.352-.13.71-.255a1.75 1.75 0 0 0 -1.154-3.3c-.258.09-.515.183-.77.277a1.75 1.75 0 0 0 .607 3.392z"/><path d="m95.539 77.625a1.751 1.751 0 0 0 -2.344.794q-.247.5-.513 1a1.75 1.75 0 1 0 3.08 1.663q.3-.549.572-1.108a1.75 1.75 0 0 0 -.795-2.349z"/><path d="m64 56.494a9.25 9.25 0 1 0 9.25 9.25 9.26 9.26 0 0 0 -9.25-9.25zm0 3.5a5.755 5.755 0 0 1 5.215 3.342 7.261 7.261 0 0 1 -10.429 0 5.753 5.753 0 0 1 5.214-3.342zm0 11.5a5.757 5.757 0 0 1 -5.456-3.945 10.7 10.7 0 0 0 10.912 0 5.757 5.757 0 0 1 -5.456 3.945z"/></g></svg>