<svg id="Layer_1" height="512" viewBox="0 0 128 128" width="512" xmlns="http://www.w3.org/2000/svg" data-name="Layer 1"><path d="m54.494 47.79h19.012a4.307 4.307 0 0 1 4.306 4.31v7.926a0 0 0 0 1 0 0h-27.625a0 0 0 0 1 0 0v-7.926a4.307 4.307 0 0 1 4.307-4.31z" fill="#fb0025"/><path d="m100.51 102.4h-73.02a8.818 8.818 0 0 1 -8.651-10.519l4.867-24.738a8.817 8.817 0 0 1 8.651-7.115h63.286a8.817 8.817 0 0 1 8.651 7.115l4.867 24.738a8.818 8.818 0 0 1 -8.651 10.519z" fill="#0087ff"/><path d="m25.3 91.438 4.324-21.981a3.945 3.945 0 0 1 3.87-3.183h61.015a3.945 3.945 0 0 1 3.87 3.183l4.321 21.981a3.943 3.943 0 0 1 -3.869 4.7h-69.664a3.944 3.944 0 0 1 -3.867-4.7z" fill="#84c8ff"/><circle cx="64" cy="59.617" fill="#ffda2d" r="6.658"/><path d="m58.875 18.671h10.25v29.119h-10.25z" fill="#5a422c"/><path d="m58.875 102.395h10.25v6.935h-10.25z" fill="#5a422c"/><path d="m45.802 96.143h-7.75l9.875-29.869h7.75z" fill="#fff4ca"/><path d="m56.812 96.143h-4.75l9.875-29.869h4.75z" fill="#fff4ca"/><g fill="#002390"><path d="m110.877 91.538-4.866-24.738a10.588 10.588 0 0 0 -10.367-8.527h-16.082v-6.173a6.063 6.063 0 0 0 -6.056-6.057h-12.881v-27.372a1.75 1.75 0 1 0 -3.5 0v27.369h-2.631a6.064 6.064 0 0 0 -6.057 6.06v1.809a1.75 1.75 0 0 0 3.5 0v-1.809a2.56 2.56 0 0 1 2.557-2.557h19.012a2.559 2.559 0 0 1 2.556 2.557v6.176h-3.772a8.4 8.4 0 0 0 -16.58 0h-23.353a10.588 10.588 0 0 0 -10.368 8.524l-4.867 24.738a10.567 10.567 0 0 0 10.368 12.607h39.885v3.434h-8.5a1.75 1.75 0 0 0 0 3.5h10.25a1.749 1.749 0 0 0 1.75-1.75v-5.184h29.635a10.566 10.566 0 0 0 10.367-12.607zm-56.393 2.856 7.016-21.231a1.75 1.75 0 0 0 -3.323-1.1l-7.377 22.331h-2.576l8.718-26.37h7.324l-8.718 26.37zm-14.01 0 3.24-9.8a1.75 1.75 0 0 0 -3.323-1.1l-3.6 10.9h-7.62a2.193 2.193 0 0 1 -2.152-2.618l4.319-21.976a2.2 2.2 0 0 1 2.153-1.771h12.014l-1.128 3.412a1.749 1.749 0 0 0 1.113 2.21 1.725 1.725 0 0 0 .55.089 1.751 1.751 0 0 0 1.661-1.2l1.491-4.511h4.063l-8.718 26.37zm23.526-39.685a4.908 4.908 0 1 1 -4.908 4.907 4.912 4.912 0 0 1 4.908-4.907zm41.968 43.357a7.043 7.043 0 0 1 -5.458 2.579h-73.02a7.067 7.067 0 0 1 -6.933-8.431l4.866-24.738a7.082 7.082 0 0 1 6.934-5.7h23.526a8.364 8.364 0 0 0 1.3 2.751h-23.7a5.707 5.707 0 0 0 -5.583 4.592l-4.32 21.981a5.7 5.7 0 0 0 5.587 6.793h49.166a1.75 1.75 0 0 0 0-3.5h-19.1l8.718-26.37h26.558a2.2 2.2 0 0 1 2.153 1.777l4.324 21.981a2.193 2.193 0 0 1 -2.152 2.618h-6.584a1.75 1.75 0 0 0 0 3.5h6.584a5.695 5.695 0 0 0 5.586-6.799l-4.32-21.981a5.708 5.708 0 0 0 -5.587-4.595h-23.7a8.364 8.364 0 0 0 1.3-2.751h23.531a7.082 7.082 0 0 1 6.933 5.7l4.866 24.738a7.039 7.039 0 0 1 -1.475 5.855z"/><path d="m86.167 94.394h-.916a1.75 1.75 0 0 0 0 3.5h.916a1.75 1.75 0 0 0 0-3.5z"/><path d="m69.125 43.25a1.749 1.749 0 0 0 1.75-1.75v-22.829a1.75 1.75 0 1 0 -3.5 0v22.829a1.749 1.749 0 0 0 1.75 1.75z"/><path d="m44.743 75.9a1.755 1.755 0 0 0 -2.21 1.114l-.273.827a1.75 1.75 0 0 0 1.113 2.211 1.78 1.78 0 0 0 .549.088 1.751 1.751 0 0 0 1.661-1.2l.273-.827a1.75 1.75 0 0 0 -1.113-2.213z"/></g></svg>