<svg id="Layer_1" height="512" viewBox="0 0 128 128" width="512" xmlns="http://www.w3.org/2000/svg" data-name="Layer 1"><path d="m82.373 19.189-26.437 26.438 5.2 5.2a4.654 4.654 0 0 1 6.55.028l9.463 9.463a4.654 4.654 0 0 1 .028 6.55l5.2 5.2 26.438-26.437z" fill="#fb0025"/><path d="m68.236 38.115h37.388v5.91h-37.388z" fill="#ffda2d" transform="matrix(.707 .707 -.707 .707 54.502 -49.44)"/><circle cx="78.73" cy="49.27" fill="#fff4ca" r="3.487"/><path d="m69.535 52.7-21.23 21.23a48.325 48.325 0 0 1 -20.894 12.757 11.273 11.273 0 1 0 13.967 13.66 43.221 43.221 0 0 1 11.663-19.626l22.259-22.256zm-36.192 47.718a4.074 4.074 0 1 1 0-5.761 4.073 4.073 0 0 1 0 5.761z" fill="#0087ff"/><g fill="#002390"><path d="m90.521 29.811a1.75 1.75 0 1 0 2.479-2.475l-.707-.707a1.75 1.75 0 0 0 -2.48 2.471z"/><path d="m110.048 44.389-12.678-12.678a1.75 1.75 0 0 0 -2.47 2.475l11.44 11.44-4.1 4.1-23.964-23.965 4.1-4.1 2.981 2.981a1.75 1.75 0 0 0 2.475-2.475l-4.222-4.215a1.8 1.8 0 0 0 -2.474 0l-6.572 6.571-19.864 19.866a1.749 1.749 0 0 0 0 2.475l5.2 5.2a1.75 1.75 0 0 0 2.463.012 2.912 2.912 0 0 1 4.087.016l6.375 6.374-21.025 21.017a52.138 52.138 0 0 0 -5 5.792 1.75 1.75 0 1 0 2.812 2.083 48.656 48.656 0 0 1 4.671-5.4l21.017-21.018.613.613a2.914 2.914 0 0 1 .017 4.087 1.75 1.75 0 0 0 .011 2.463l5.2 5.2a1.748 1.748 0 0 0 2.474 0l26.438-26.437a1.751 1.751 0 0 0 -.005-2.477zm-27.675 25.2-2.905-2.905a6.429 6.429 0 0 0 -1.084-7.606l-9.462-9.462a6.432 6.432 0 0 0 -7.606-1.084l-2.905-2.906 13.211-13.211 20.232 20.231a1.749 1.749 0 1 0 2.474-2.474l-20.228-20.232 1.7-1.7 23.964 23.96z"/><path d="m79.958 45.567a1.749 1.749 0 0 0 0 2.475 1.74 1.74 0 0 1 0 2.457 1.78 1.78 0 0 1 -2.457 0 1.74 1.74 0 0 1 0-2.457 1.75 1.75 0 0 0 -2.475-2.475 5.237 5.237 0 1 0 7.407 0 1.751 1.751 0 0 0 -2.475 0z"/><path d="m26.344 93.42a5.824 5.824 0 0 0 8.236 8.236 5.824 5.824 0 1 0 -8.236-8.236zm6.442 4.118a2.308 2.308 0 0 1 -.681 1.643 2.322 2.322 0 1 1 .681-1.643z"/><path d="m45.109 91.015a1.749 1.749 0 0 0 -2.352.77q-.234.46-.456.927a1.75 1.75 0 1 0 3.161 1.5q.2-.426.417-.848a1.75 1.75 0 0 0 -.77-2.349z"/><path d="m41.81 98.651a1.748 1.748 0 0 0 -2.128 1.264 9.525 9.525 0 1 1 -11.8-11.542 50.257 50.257 0 0 0 21.661-13.2l17.313-17.317a1.749 1.749 0 1 0 -2.474-2.474l-17.315 17.318a46.747 46.747 0 0 1 -20.127 12.3 13.022 13.022 0 0 0 2.78 25.539q.369.021.738.021a13.018 13.018 0 0 0 12.615-9.782 1.75 1.75 0 0 0 -1.263-2.127z"/></g></svg>