<svg id="Layer_1" height="512" viewBox="0 0 128 128" width="512" xmlns="http://www.w3.org/2000/svg" data-name="Layer 1"><path d="m107.084 20.916-17.056 17.056-14.502 2.929-4.83-4.829 7.298-7.298 26.844-10.103z" fill="#84c8ff"/><path d="m107.084 20.916-17.056 17.056-2.929 14.502 4.829 4.83 7.298-7.298 10.103-26.844z" fill="#0087ff"/><path d="m58.132 41.212-1.225.176 4.236 4.237-1.81.758a62.851 62.851 0 0 0 -31.206 28.462l-8.986 16.9a4.011 4.011 0 0 0 1.959 5.568 4.01 4.01 0 0 0 4.984-1.557l11.079-17.7q.507-.81 1.037-1.6a61.444 61.444 0 0 1 35.747-25.012l3.526-.917-1.947-9.627a69.448 69.448 0 0 0 -17.394.312z" fill="#fb0025"/><path d="m86.788 69.868-.176 1.225-4.237-4.236-.758 1.81a62.851 62.851 0 0 1 -28.462 31.206l-16.9 8.986a4.011 4.011 0 0 1 -5.568-1.958 4.01 4.01 0 0 1 1.557-4.984l17.7-11.079q.81-.507 1.6-1.037a61.444 61.444 0 0 0 25.012-35.748l.917-3.526 9.627 1.947a69.448 69.448 0 0 1 -.312 17.394z" fill="#fb0025"/><circle cx="83.75" cy="44.25" fill="#ffda2d" r="8.878"/><g fill="#002390"><path d="m110.566 21.925-2.245-2.246-2.246-2.245a1.75 1.75 0 0 0 -1.853-.4l-26.845 10.1a1.743 1.743 0 0 0 -.621.4l-7.3 7.3a1.75 1.75 0 1 0 2.475 2.475l7.031-7.03 25.438-9.573.211.211-14.693 14.691a10.578 10.578 0 0 0 -15.425 3.441 71.189 71.189 0 0 0 -16.612.43l-1.225.178a1.75 1.75 0 0 0 -.987 2.969l2.4 2.4a65.022 65.022 0 0 0 -22.758 16.437 1.75 1.75 0 1 0 2.617 2.324 61.494 61.494 0 0 1 22.081-15.787l1.81-.759a1.749 1.749 0 0 0 .561-2.851l-1.732-1.732a67.7 67.7 0 0 1 12.637-.179 10.646 10.646 0 0 0 1.23 7.012l-1.008.262a63.071 63.071 0 0 0 -36.763 25.726q-.544.815-1.065 1.646l-11.079 17.703a2.261 2.261 0 0 1 -3.913-2.261l8.985-16.9a1.75 1.75 0 1 0 -3.09-1.644l-8.982 16.9a5.761 5.761 0 0 0 9.97 5.762l11.079-17.7q.493-.788 1.008-1.558a59.573 59.573 0 0 1 34.731-24.289l2.612-.68a10.514 10.514 0 0 0 8.521 2.257 67.789 67.789 0 0 1 -.179 12.637l-1.729-1.732a1.749 1.749 0 0 0 -2.851.561l-.762 1.81a61.257 61.257 0 0 1 -27.667 30.337l-16.9 8.985a2.261 2.261 0 0 1 -2.261-3.913l17.7-11.079q.831-.52 1.646-1.066a63.1 63.1 0 0 0 24.677-33.136 1.75 1.75 0 1 0 -3.332-1.072 59.59 59.59 0 0 1 -23.286 31.3q-.771.514-1.559 1.008l-17.7 11.079a5.762 5.762 0 0 0 5.762 9.971l16.9-8.986a64.777 64.777 0 0 0 29-31.482l2.395 2.395a1.75 1.75 0 0 0 2.969-.987l.178-1.226a71.267 71.267 0 0 0 .667-13.08l1.5 1.5a1.752 1.752 0 0 0 2.475 0l7.3-7.3a1.743 1.743 0 0 0 .4-.621l1.5-3.985a1.75 1.75 0 1 0 -3.275-1.232l-1.367 3.63-5.793 5.793-1.969-1.968a10.533 10.533 0 0 0 2.433-14.779l14.691-14.69.211.21-3.7 9.837a1.75 1.75 0 1 0 3.275 1.232l4.1-10.893a1.749 1.749 0 0 0 -.404-1.848zm-21.775 27.365a7.125 7.125 0 1 1 0-10.081 7.137 7.137 0 0 1 0 10.081z"/><path d="m103.73 38.04a1.747 1.747 0 0 0 -2.254 1.021l-.309.821a1.75 1.75 0 1 0 3.275 1.233l.309-.821a1.75 1.75 0 0 0 -1.021-2.254z"/><path d="m30.627 70.518a1.751 1.751 0 0 0 2.431-.468c.158-.235.318-.467.481-.7a1.75 1.75 0 0 0 -2.869-2.006q-.257.369-.511.743a1.75 1.75 0 0 0 .468 2.431z"/></g></svg>