<svg id="Layer_1" height="512" viewBox="0 0 128 128" width="512" xmlns="http://www.w3.org/2000/svg" data-name="Layer 1"><circle cx="56.86" cy="71.14" fill="#a07852" r="38.189"/><path d="m56.86 111.079a39.94 39.94 0 1 1 39.94-39.939 39.985 39.985 0 0 1 -39.94 39.939zm0-76.379a36.44 36.44 0 1 0 36.44 36.44 36.481 36.481 0 0 0 -36.44-36.44z" fill="#5a422c"/><circle cx="56.86" cy="71.14" fill="#fff4ca" r="23.804"/><circle cx="56.86" cy="71.14" fill="#0087ff" r="17.729"/><path d="m70.993 60.466a15.938 15.938 0 0 0 -3.459-3.459 17.711 17.711 0 0 1 -21.226-.09 16.035 16.035 0 0 0 -3.655 3.649 17.712 17.712 0 0 1 .077 21.251 15.883 15.883 0 0 0 3.453 3.453 17.711 17.711 0 0 1 21.25.077 16.066 16.066 0 0 0 3.65-3.655 17.711 17.711 0 0 1 -.09-21.226z" fill="#84c8ff"/><g fill="#5a422c"><circle cx="56.86" cy="71.14" r="3.815"/><path d="m56.867 37.084a1.75 1.75 0 0 1 -1.75-1.745l-.007-2.384a1.75 1.75 0 0 1 1.745-1.755 1.719 1.719 0 0 1 1.755 1.745l.007 2.384a1.749 1.749 0 0 1 -1.745 1.755z"/><path d="m82.184 47.577a1.75 1.75 0 0 1 -1.242-2.983l1.681-1.694a1.75 1.75 0 0 1 2.482 2.467l-1.68 1.692a1.745 1.745 0 0 1 -1.241.518z"/><path d="m92.666 72.9a1.75 1.75 0 0 1 -.006-3.5l2.384-.007a1.718 1.718 0 0 1 1.756 1.741 1.75 1.75 0 0 1 -1.744 1.756l-2.384.007z"/><path d="m83.864 99.894a1.745 1.745 0 0 1 -1.233-.508l-1.692-1.68a1.75 1.75 0 0 1 2.467-2.484l1.694 1.678a1.751 1.751 0 0 1 -1.234 2.993z"/><path d="m56.86 111.079a1.749 1.749 0 0 1 -1.75-1.744l-.007-2.384a1.749 1.749 0 0 1 1.744-1.756h.006a1.751 1.751 0 0 1 1.75 1.744l.007 2.384a1.749 1.749 0 0 1 -1.744 1.756z"/><path d="m29.856 99.894a1.751 1.751 0 0 1 -1.241-2.984l1.68-1.69a1.75 1.75 0 1 1 2.482 2.467l-1.677 1.69a1.743 1.743 0 0 1 -1.244.517z"/><path d="m18.671 72.89a1.75 1.75 0 0 1 0-3.5l2.384-.007a1.75 1.75 0 0 1 0 3.5z"/><path d="m31.547 47.566a1.749 1.749 0 0 1 -1.234-.508l-1.69-1.681a1.75 1.75 0 1 1 2.467-2.477l1.69 1.68a1.75 1.75 0 0 1 -1.233 2.991z"/><path d="m71.117 40.046a1.725 1.725 0 0 1 -.69-.143 1.749 1.749 0 0 1 -.916-2.3l.941-2.19a1.75 1.75 0 0 1 3.215 1.387l-.941 2.19a1.751 1.751 0 0 1 -1.609 1.056z"/><path d="m90.167 59.747a1.75 1.75 0 0 1 -.648-3.376l2.214-.882a1.75 1.75 0 1 1 1.3 3.252l-2.215.882a1.752 1.752 0 0 1 -.651.124z"/><path d="m91.894 88.09a1.746 1.746 0 0 1 -.691-.143l-2.19-.942a1.75 1.75 0 1 1 1.387-3.215l2.19.942a1.75 1.75 0 0 1 -.692 3.358z"/><path d="m70.886 108.411a1.75 1.75 0 0 1 -1.627-1.1l-.882-2.215a1.75 1.75 0 1 1 3.252-1.295l.882 2.215a1.75 1.75 0 0 1 -1.625 2.4z"/><path d="m41.659 107.924a1.751 1.751 0 0 1 -1.606-2.442l.947-2.189a1.75 1.75 0 0 1 3.215 1.383l-.942 2.189a1.752 1.752 0 0 1 -1.614 1.059z"/><path d="m21.34 86.915a1.75 1.75 0 0 1 -.65-3.376l2.215-.883a1.751 1.751 0 1 1 1.3 3.252l-2.215.883a1.761 1.761 0 0 1 -.65.124z"/><path d="m24.015 58.632a1.746 1.746 0 0 1 -.691-.143l-2.189-.941a1.75 1.75 0 0 1 1.383-3.215l2.189.941a1.75 1.75 0 0 1 -.692 3.358z"/><path d="m43.719 39.584a1.751 1.751 0 0 1 -1.627-1.1l-.883-2.214a1.751 1.751 0 1 1 3.252-1.3l.883 2.215a1.75 1.75 0 0 1 -1.625 2.4z"/></g><circle cx="84.793" cy="43.185" fill="#0087ff" r="24.514"/><path d="m102.07 43.19a16.947 16.947 0 0 1 -.09 1.75 17.145 17.145 0 0 1 -3.79 9.16 18.163 18.163 0 0 1 -2.48 2.48 17.307 17.307 0 0 1 -21.84 0 18.67 18.67 0 0 1 -2.47-2.48 17.145 17.145 0 0 1 -3.79-9.16 17.059 17.059 0 0 1 0-3.5 17.145 17.145 0 0 1 3.79-9.17 18.09 18.09 0 0 1 2.47-2.48 17.145 17.145 0 0 1 9.17-3.79 17.059 17.059 0 0 1 3.5 0 17.145 17.145 0 0 1 9.17 3.79 18.163 18.163 0 0 1 2.48 2.48 17.145 17.145 0 0 1 3.79 9.17 16.947 16.947 0 0 1 .09 1.75z" fill="#84c8ff"/><path d="m86.54 26v2.39a1.75 1.75 0 0 1 -3.5 0v-2.39a17.059 17.059 0 0 1 3.5 0z" fill="#0087ff"/><path d="m98.19 32.27-1.7 1.69a1.726 1.726 0 0 1 -1.23.51 1.75 1.75 0 0 1 -1.24-2.99l1.69-1.69a18.163 18.163 0 0 1 2.48 2.48z" fill="#0087ff"/><path d="m102.07 43.19a16.947 16.947 0 0 1 -.09 1.75h-2.39a1.75 1.75 0 0 1 0-3.5h2.39a16.947 16.947 0 0 1 .09 1.75z" fill="#0087ff"/><path d="m98.19 54.1a18.163 18.163 0 0 1 -2.48 2.48l-1.69-1.69a1.75 1.75 0 0 1 2.47-2.48z" fill="#0087ff"/><path d="m75.57 54.89-1.7 1.69a18.67 18.67 0 0 1 -2.47-2.48l1.69-1.69a1.754 1.754 0 1 1 2.48 2.48z" fill="#0087ff"/><path d="m71.74 43.19a1.752 1.752 0 0 1 -1.75 1.75h-2.38a17.059 17.059 0 0 1 0-3.5h2.38a1.746 1.746 0 0 1 1.75 1.75z" fill="#0087ff"/><path d="m75.57 33.96a1.762 1.762 0 0 1 -2.48 0l-1.69-1.69a18.09 18.09 0 0 1 2.47-2.48l1.7 1.69a1.762 1.762 0 0 1 0 2.48z" fill="#0087ff"/><ellipse cx="84.793" cy="57.493" fill="#fb0025" rx="9.684" ry="2.968"/><path d="m84.793 34.355a1.75 1.75 0 0 0 -1.75 1.75v7.081a1.75 1.75 0 1 0 3.5 0v-7.086a1.75 1.75 0 0 0 -1.75-1.745z" fill="#fff4ca"/><path d="m40.714 55.4a1.745 1.745 0 0 0 1.185-.462q.327-.3.665-.59a1.75 1.75 0 1 0 -2.264-2.665q-.39.332-.767.679a1.75 1.75 0 0 0 1.181 3.038z" fill="#002390"/><path d="m80.638 73.228a1.74 1.74 0 0 0 -2.006 1.449 22.056 22.056 0 1 1 -40.582-15.056 1.75 1.75 0 0 0 -2.983-1.832 25.556 25.556 0 1 0 47.02 17.444 1.748 1.748 0 0 0 -1.449-2.005z" fill="#002390"/><path d="m56.86 65.575a5.565 5.565 0 1 0 5.565 5.565 5.571 5.571 0 0 0 -5.565-5.565zm0 7.63a2.065 2.065 0 1 1 2.065-2.065 2.068 2.068 0 0 1 -2.065 2.065z" fill="#002390"/><path d="m111.058 43.186a26.032 26.032 0 0 0 -5.325-15.857 1.75 1.75 0 1 0 -2.789 2.115 22.563 22.563 0 0 1 4.614 13.742 22.741 22.741 0 1 1 -16.17-21.795 1.751 1.751 0 0 0 1.012-3.352 26.284 26.284 0 0 0 -31.1 13.431 40.624 40.624 0 0 0 -4.436-.27h-.006a39.726 39.726 0 0 0 -14.561 2.763c-.035.011-.071.016-.106.03s-.063.034-.095.05a40.041 40.041 0 0 0 -13.281 8.7 1.745 1.745 0 0 0 -.2.161 1.985 1.985 0 0 0 -.149.183 40.106 40.106 0 0 0 -8.2 12.08c-.014.029-.033.054-.046.084s-.012.042-.02.062a39.705 39.705 0 0 0 -3.279 15.827 39.709 39.709 0 0 0 2.758 14.56c.013.04.018.08.034.118s.028.043.039.067a40.046 40.046 0 0 0 8.712 13.311 1.8 1.8 0 0 0 .159.194 1.855 1.855 0 0 0 .184.15 40.1 40.1 0 0 0 12.074 8.2.942.942 0 0 0 .088.049c.021.009.043.012.064.02a39.7 39.7 0 0 0 15.827 3.278h.008a39.729 39.729 0 0 0 14.549-2.758c.038-.013.077-.019.115-.034s.064-.035.1-.05a40.065 40.065 0 0 0 13.28-8.7 1.861 1.861 0 0 0 .2-.161 1.659 1.659 0 0 0 .151-.186 40.085 40.085 0 0 0 8.212-12.107c.009-.019.024-.033.033-.053s.012-.043.021-.065a39.711 39.711 0 0 0 3.271-15.833 40.548 40.548 0 0 0 -.272-4.459 26.289 26.289 0 0 0 14.53-23.495zm-38.219 27.954a15.866 15.866 0 0 1 -1.765 7.265 15.959 15.959 0 0 1 -.687-13.275q.8.525 1.633.993a15.924 15.924 0 0 1 .819 5.017zm-31.958 0a15.885 15.885 0 0 1 1.785-7.289 16.063 16.063 0 0 1 .048 14.7 15.868 15.868 0 0 1 -1.833-7.411zm19.019 9.131a19.542 19.542 0 0 0 -13.6 2.823 15.988 15.988 0 0 1 -1.378-1.377 19.545 19.545 0 0 0 -.076-21.068 16.02 16.02 0 0 1 1.537-1.557 19.413 19.413 0 0 0 18.682 1.4 26.372 26.372 0 0 0 2.452 2.45 19.469 19.469 0 0 0 1.383 18.676 15.9 15.9 0 0 1 -19.425 3.682 16.059 16.059 0 0 1 9.858-1.571 1.75 1.75 0 0 0 .563-3.455zm33.338-10.871h-.578a1.75 1.75 0 0 0 .006 3.5h.589a36.188 36.188 0 0 1 -2.315 11.124l-.54-.234a1.75 1.75 0 1 0 -1.383 3.215l.529.228a36.584 36.584 0 0 1 -5.723 8.4l-.413-.409a1.75 1.75 0 0 0 -2.467 2.484l.4.4a36.564 36.564 0 0 1 -9.5 6.235l-.216-.543a1.75 1.75 0 1 0 -3.252 1.295l.214.537a36.224 36.224 0 0 1 -9.987 1.9v-.6a1.751 1.751 0 0 0 -1.75-1.744h-.006a1.749 1.749 0 0 0 -1.744 1.756v.584a36.2 36.2 0 0 1 -11.128-2.316l.234-.543a1.75 1.75 0 0 0 -3.208-1.376l-.228.529a36.583 36.583 0 0 1 -8.4-5.724l.409-.411a1.75 1.75 0 1 0 -2.481-2.467l-.4.4a36.568 36.568 0 0 1 -6.236-9.5l.544-.217a1.751 1.751 0 1 0 -1.3-3.252l-.536.214a36.217 36.217 0 0 1 -1.9-9.985h.595a1.75 1.75 0 0 0 0-3.5h-.585a36.189 36.189 0 0 1 2.316-11.129l.543.233a1.75 1.75 0 1 0 1.383-3.215l-.529-.227a36.583 36.583 0 0 1 5.724-8.4l.411.41a1.75 1.75 0 1 0 2.467-2.483l-.4-.4a36.526 36.526 0 0 1 9.5-6.236l.217.544a1.75 1.75 0 0 0 3.252-1.3l-.214-.537a36.174 36.174 0 0 1 9.985-1.905v.595a1.75 1.75 0 0 0 1.75 1.745h.005a1.749 1.749 0 0 0 1.745-1.755v-.566c.428.02.853.04 1.28.075a26.154 26.154 0 0 0 -1.368 8.348c0 .833.044 1.656.12 2.47-.6-.041-1.191-.069-1.788-.069a25.325 25.325 0 0 0 -11.032 2.5 1.75 1.75 0 0 0 1.514 3.156 21.853 21.853 0 0 1 9.518-2.153 22.448 22.448 0 0 1 2.378.142 26.122 26.122 0 0 0 3.625 8.386 15.953 15.953 0 0 1 -13.282-.7 15.8 15.8 0 0 1 4.057-1.434 1.75 1.75 0 1 0 -.7-3.429 19.409 19.409 0 0 0 -11.569 7.328 1.758 1.758 0 0 0 -.232.309 19.327 19.327 0 0 0 .06 23.017 1.748 1.748 0 0 0 .224.3 19.615 19.615 0 0 0 3.588 3.58 1.787 1.787 0 0 0 .157.118 19.375 19.375 0 0 0 27.19-3.831 1.734 1.734 0 0 0 .176-.235 19.351 19.351 0 0 0 3.786-11.492 19.636 19.636 0 0 0 -.27-3.186 26.18 26.18 0 0 0 17.09.121c.041.44.058.879.079 1.325z" fill="#002390"/><path d="m97.13 24.051c.315.2.625.415.93.633a1.75 1.75 0 0 0 2.04-2.844q-.528-.38-1.075-.733a1.75 1.75 0 1 0 -1.894 2.944z" fill="#002390"/><path d="m98.246 29.731a1.668 1.668 0 0 0 -.13-.106 18.969 18.969 0 0 0 -26.638-.007c-.046.038-.1.07-.139.113s-.076.093-.114.14a18.97 18.97 0 0 0 .008 26.638c.036.043.066.089.106.13a1.6 1.6 0 0 0 .129.1 19.194 19.194 0 0 0 2.513 2.078 1.687 1.687 0 0 0 .263.185 18.956 18.956 0 0 0 21.026.045c.019-.01.036-.023.055-.034l.217-.148c.035-.028.074-.051.108-.081a19.186 19.186 0 0 0 2.477-2.053c.039-.033.082-.06.119-.1s.064-.08.1-.119a18.972 18.972 0 0 0 .008-26.66 1.6 1.6 0 0 0 -.108-.121zm1.346 15.2h.622a15.437 15.437 0 0 1 -3.287 7.909l-.433-.433a1.75 1.75 0 0 0 -2.474 2.475l.433.433-.07.052a19.005 19.005 0 0 0 -19.18 0c-.023-.018-.047-.034-.07-.053l.432-.432a1.75 1.75 0 1 0 -2.474-2.475l-.433.433a15.448 15.448 0 0 1 -3.286-7.909h.622a1.75 1.75 0 0 0 0-3.5h-.622a15.437 15.437 0 0 1 3.287-7.91l.432.432a1.75 1.75 0 1 0 2.474-2.475l-.432-.432a15.447 15.447 0 0 1 7.91-3.286v.622a1.75 1.75 0 0 0 3.5 0v-.622a15.432 15.432 0 0 1 7.909 3.286l-.432.432a1.75 1.75 0 1 0 2.474 2.475l.433-.433a15.44 15.44 0 0 1 3.287 7.911h-.622a1.75 1.75 0 0 0 0 3.5zm-20.82 12.569a15.456 15.456 0 0 1 12.042 0 15.514 15.514 0 0 1 -12.042 0z" fill="#002390"/><path d="m84.793 34.355a1.75 1.75 0 0 0 -1.75 1.75v7.081a1.75 1.75 0 1 0 3.5 0v-7.086a1.75 1.75 0 0 0 -1.75-1.745z" fill="#002390"/></svg>