<svg id="Layer_1" height="512" viewBox="0 0 128 128" width="512" xmlns="http://www.w3.org/2000/svg" data-name="Layer 1"><path d="m50.977 92.461-16.868 16.868h-15.438v-15.438l16.868-16.868z" fill="#a07852"/><path d="m109.329 34.109-16.868 16.868-15.438-15.438 16.868-16.868h15.438z" fill="#a07852"/><path d="m39.988 60.971h22.333v31.75h-22.333z" fill="#fb0025" transform="matrix(.707 -.707 .707 .707 -39.355 58.679)"/><path d="m75.21 31.331h11.167v31.75h-11.167z" fill="#0087ff" transform="matrix(.707 -.707 .707 .707 -9.716 70.956)"/><path d="m88.07 62.38-7.48.41-6.78 5.36-13.96-13.96 5.36-6.78.41-7.48z" fill="#ffda2d"/><path d="m41.962 75.148a1.75 1.75 0 0 1 -1.237-2.987l5.745-5.745a1.75 1.75 0 0 1 2.474 2.475l-5.744 5.745a1.742 1.742 0 0 1 -1.238.512z" fill="#ffda2d"/><path d="m46.175 79.361a1.75 1.75 0 0 1 -1.237-2.987l5.745-5.745a1.75 1.75 0 1 1 2.475 2.471l-5.746 5.745a1.746 1.746 0 0 1 -1.237.516z" fill="#ffda2d"/><path d="m50.388 83.575a1.75 1.75 0 0 1 -1.237-2.987l5.749-5.745a1.75 1.75 0 0 1 2.475 2.474l-5.746 5.746a1.744 1.744 0 0 1 -1.241.512z" fill="#ffda2d"/><path d="m54.6 87.788a1.75 1.75 0 0 1 -1.236-2.988l5.745-5.745a1.75 1.75 0 0 1 2.475 2.474l-5.745 5.745a1.745 1.745 0 0 1 -1.239.514z" fill="#ffda2d"/><path d="m78.08 52.39-5.01 5.01a1.747 1.747 0 0 1 -2.47-2.47l5.01-5.01z" fill="#fff4ca"/><g fill="#002390"><path d="m31.974 80.588a1.749 1.749 0 0 0 -2.475 0l-12.065 12.065a1.75 1.75 0 1 0 2.474 2.475l12.066-12.065a1.751 1.751 0 0 0 0-2.475z"/><path d="m93.2 21.114a1.748 1.748 0 0 0 1.238-.512l.693-.694a1.75 1.75 0 1 0 -2.475-2.474l-.693.693a1.75 1.75 0 0 0 1.237 2.987z"/><path d="m110.566 32.872a1.748 1.748 0 0 0 -2.474 0l-11.444 11.443a1.75 1.75 0 1 0 2.475 2.475l11.443-11.443a1.749 1.749 0 0 0 0-2.475z"/><path d="m61.861 69.285a1.75 1.75 0 0 0 -2.475 2.475l8.414 8.415-13.317 13.317-19.975-19.975 13.317-13.317 2.093 2.094a1.75 1.75 0 0 0 2.475-2.475l-3.331-3.331a1.751 1.751 0 0 0 -2.475 0l-15.787 15.791a1.752 1.752 0 0 0 0 2.475l17.7 17.707-15.628 15.631a1.75 1.75 0 1 0 2.475 2.474l15.631-15.63 2.268 2.264a1.749 1.749 0 0 0 2.475 0l15.792-15.788a1.75 1.75 0 0 0 0-2.474z"/><path d="m54.9 67.271a1.75 1.75 0 0 0 2.472-2.471l-.67-.67a1.75 1.75 0 1 0 -2.475 2.47z"/><path d="m79.5 35.539 10.185-10.187a1.75 1.75 0 0 0 -2.475-2.475l-10.188 10.187-2.268-2.264a1.749 1.749 0 0 0 -2.475 0l-7.9 7.9a1.75 1.75 0 0 0 -.5 1.11c0 .009-.009.022-.01.031l-.382 6.93-5.013 6.329a1.749 1.749 0 0 0 .134 2.323l13.966 13.969a1.75 1.75 0 0 0 2.323.134l6.776-5.362a1.75 1.75 0 0 0 -2.173-2.744l-5.554 4.395-11.761-11.762 4.395-5.553a1.745 1.745 0 0 0 .376-.989l.2-3.574 7.218 7.219-3.774 3.77a1.749 1.749 0 1 0 2.474 2.474l3.772-3.771 9.988 9.988a1.749 1.749 0 0 0 2.475 0l7.9-7.9a1.751 1.751 0 0 0 0-2.475zm8.574 24.366-19.974-19.976 5.421-5.421 2.268 2.268 17.704 17.707z"/><path d="m48.944 66.416a1.748 1.748 0 0 0 -2.474 0l-5.745 5.745a1.75 1.75 0 0 0 2.475 2.475l5.745-5.745a1.749 1.749 0 0 0 -.001-2.475z"/><path d="m50.683 70.629-5.745 5.745a1.75 1.75 0 0 0 2.474 2.475l5.746-5.749a1.75 1.75 0 1 0 -2.475-2.475z"/><path d="m57.371 74.843a1.749 1.749 0 0 0 -2.475 0l-5.745 5.745a1.75 1.75 0 0 0 2.474 2.475l5.746-5.746a1.75 1.75 0 0 0 0-2.474z"/><path d="m54.6 87.788a1.745 1.745 0 0 0 1.237-.513l5.745-5.745a1.75 1.75 0 0 0 -2.475-2.474l-5.743 5.744a1.75 1.75 0 0 0 1.236 2.988z"/></g></svg>